<?xml version="1.0" standalone="no"?><!DOCTYPE svg PUBLIC "-//W3C//DTD SVG 1.1//EN" "http://www.w3.org/Graphics/SVG/1.1/DTD/svg11.dtd"><svg t="1640852397322" class="icon" viewBox="0 0 1024 1024" version="1.1" xmlns="http://www.w3.org/2000/svg" p-id="38965" xmlns:xlink="http://www.w3.org/1999/xlink" width="200" height="200"><defs><style type="text/css"></style></defs><path d="M0 512a512 512 0 1 1 1024 0A512 512 0 0 1 0 512z" fill="#FFFFFF" p-id="38966"></path><path d="M866.56 504.064c0-57.856-15.104-112.192-41.6-159.36C937.792 91.712 704.064 128.768 691.072 131.328a598.4 598.4 0 0 0-137.6 44.48 337.6 337.6 0 0 0-18.816-0.512c-157.696 0-289.728 108.992-323.52 255.04C294.4 337.92 352.448 300.672 387.264 285.76a740.728 740.728 0 0 0-16.32 14.912l-5.248 5.056c-3.584 3.328-7.04 6.72-10.496 10.112l-6.08 6.08a881.28 881.28 0 0 0-9.088 9.28l-6.272 6.592a821.632 821.632 0 0 0-48 55.296l-6.144 7.68-5.632 7.424-6.336 8.256-4.352 5.824a1019.392 1019.392 0 0 0-44.288 64.96l-0.448 0.704a1032.32 1032.32 0 0 0-7.808 12.8l-0.256 0.384c-6.848 11.328-13.184 22.208-18.88 32.384-29.888 53.696-44.416 91.2-45.056 93.44-94.4 334.208 200.192 193.088 241.28 171.968 44.288 21.696 94.08 33.92 146.816 33.92a331.776 331.776 0 0 0 312.768-218.688H673.088c-25.856 43.136-75.52 72.384-132.544 72.384-83.648 0-151.424-62.72-151.424-140.16h474.688a329.22 329.22 0 0 0 2.752-42.304z m-62.08-323.52c28.608 19.136 51.584 49.088 12.16 150.144A332.288 332.288 0 0 0 654.592 197.44c30.72-14.72 106.752-45.76 149.952-16.896zM197.12 798.272c-23.232-23.68-27.328-81.28 24-186.24a330.432 330.432 0 0 0 144.512 174.976c-33.28 18.176-121.536 58.944-168.448 11.264z m191.232-341.76c2.688-75.264 68.8-135.488 150.016-135.488s147.328 60.16 149.952 135.424H388.352z" fill="#1EBBEE" p-id="38967"></path></svg>