<?xml version="1.0" standalone="no"?><!DOCTYPE svg PUBLIC "-//W3C//DTD SVG 1.1//EN" "http://www.w3.org/Graphics/SVG/1.1/DTD/svg11.dtd"><svg t="1640852328561" class="icon" viewBox="0 0 1024 1024" version="1.1" xmlns="http://www.w3.org/2000/svg" p-id="35715" xmlns:xlink="http://www.w3.org/1999/xlink" width="200" height="200"><defs><style type="text/css"></style></defs><path d="M904.469413 138.387016a401.098627 401.098627 0 0 0-162.357053-102.59176A691.29588 691.29588 0 0 0 515.515605 0.639201C338.776529-0.958801 210.616729 41.228464 124.324594 128.479401S0 337.817728 0 507.525593s38.032459 294.032459 119.210986 379.685393 210.93633 133.912609 387.675406 136.149813c339.41573 2.876404 511.360799-167.790262 515.515606-507.205993C1022.721598 348.044944 985.008739 224.359551 904.469413 138.387016z" fill="#E31D1A" p-id="35716"></path><path d="M504.649189 427.305868s-3.835206-1.917603-4.794008-2.876405c-6.39201-6.39201-15.021223-8.629213-19.49563-17.258427 0-2.876404-4.794007-3.515605-7.990013-4.154806-10.546816-2.237203-20.774032-4.794007-31.96005-7.670412a234.267166 234.267166 0 0 1-46.981273-19.495631l-13.742822-7.031211a11.505618 11.505618 0 0 1-6.39201-7.670412 28.124844 28.124844 0 0 0-7.670412-13.10362 42.506866 42.506866 0 0 1-6.39201-8.948814 7.670412 7.670412 0 0 1 3.196005-12.46442 23.011236 23.011236 0 0 1 13.742822-2.876404c14.701623 1.917603 29.722846 2.237203 44.424469 3.196005s27.805243 1.598002 41.548065 3.835206a191.7603 191.7603 0 0 0 33.558053 2.876404 14.382022 14.382022 0 0 1 8.948814 0h4.154806a67.435705 67.435705 0 0 0 24.289638-25.88764 25.248439 25.248439 0 0 1 10.227216-8.948814 223.72035 223.72035 0 0 0 60.084894 22.052434l17.578027 2.876405c1.917603 0 3.835206 0 5.113608 2.237203s1.917603 0 2.876405 0c6.71161 0 10.227216 6.39201 6.39201 11.505618a287.640449 287.640449 0 0 0-24.609239 48.259676 101.313358 101.313358 0 0 1-24.609238 31.96005 31.96005 31.96005 0 0 0-7.350812 7.990012 12.78402 12.78402 0 0 1-10.227216 6.07241 167.151061 167.151061 0 0 1-51.13608 0c-6.072409-0.958801-7.670412-3.835206-12.784019-4.474407zM778.866417 234.906367a363.066167 363.066167 0 0 1-15.021223 40.269663c-3.196005 0-3.515605 0-3.515606-3.196005a11.505618 11.505618 0 0 1 1.598003-5.433209A114.097378 114.097378 0 0 0 771.196005 224.359551a87.890137 87.890137 0 0 1 4.794007-21.732834 31.96005 31.96005 0 0 0-3.196005-26.207241 56.888889 56.888889 0 0 0-8.629213-11.825219 7.670412 7.670412 0 0 0-5.113608-3.196005c-4.474407 0-6.072409-3.196005-7.350811-6.71161a13.10362 13.10362 0 0 0-12.144819-8.309613 24.928839 24.928839 0 0 0-17.258427-6.711611 105.468165 105.468165 0 0 0-51.13608 4.794008c-3.196005 0-6.71161 2.556804-7.670412 6.71161-8.948814 6.072409-7.990012 6.39201 0 14.062422a4.474407 4.474407 0 0 1 0 6.07241c-4.794007 2.556804-7.031211-1.917603-9.268415-4.474407s-6.71161-7.350811-14.382022 0a88.529338 88.529338 0 0 1-20.134832 9.268414 557.06367 557.06367 0 0 1-61.363296 16.299626c-6.71161 1.917603-13.423221 4.794007-20.134831 6.072409s-4.794007 3.515605-6.39201 6.07241-3.515605 4.474407-6.39201 0a5.113608 5.113608 0 0 1 0-5.433209 12.464419 12.464419 0 0 0-4.154807-14.382022 11.825218 11.825218 0 0 0-15.021223 0c-5.433208 0-6.39201 3.196005-7.350811 6.71161a11.825218 11.825218 0 0 0 3.835206 12.78402c2.237203 1.917603 3.515605 3.835206 0 6.711611s-5.752809 0-7.990013-2.556804a15.340824 15.340824 0 0 0-18.217228-4.794008c-13.10362 3.835206-26.207241 6.39201-39.310862 9.588015a18.217228 18.217228 0 0 1-15.340824-2.237203c-4.794007-3.196005-10.546816-5.752809-15.021223-9.268415s-8.309613-9.907615-2.556804-17.258427a127.8402 127.8402 0 0 1 11.186017-14.701623c-4.794007 1.917603-9.588015 4.794007-15.021223 6.39201s-5.752809 1.917603-4.794008-3.196005a634.406991 634.406991 0 0 1 82.456929-31.96005A474.606742 474.606742 0 0 1 543.320849 128.479401a159.80025 159.80025 0 0 1 19.17603-3.515606 631.210986 631.210986 0 0 1 98.117353-3.515605 234.586767 234.586767 0 0 1 54.971286 7.031211s16.938826 6.072409 24.289638 8.948814a77.662921 77.662921 0 0 1 36.114856 27.805243 63.9201 63.9201 0 0 1 5.113608 9.907616 31.96005 31.96005 0 0 1 2.876405 9.588015 63.9201 63.9201 0 0 1 0 25.248439 162.037453 162.037453 0 0 1-5.113608 24.928839z" fill="#F9F9F9" p-id="35717"></path><path d="M545.238452 298.826467c-3.835206 6.072409-7.990012 12.144819-11.186018 18.536829a31.96005 31.96005 0 0 1-12.144819 12.464419c-5.113608 3.515605-10.227216 6.39201-10.546816 14.062422-1.598002-8.309613-7.350811-8.948814-13.742821-8.629213a284.124844 284.124844 0 0 1-39.310862-3.515606c-13.742821 0-27.166042-2.876404-40.908864-3.196005a351.560549 351.560549 0 0 1-37.073658-2.556804h-4.474407c-12.144819 0-14.382022 6.072409-7.350811 15.660425a47.940075 47.940075 0 0 1 12.144819 19.815231c0 1.917603 2.237203 2.876404 3.835206 3.835206a323.116105 323.116105 0 0 0 55.610487 24.928839c12.78402 3.835206 25.88764 6.71161 38.67166 9.588015a10.227216 10.227216 0 0 1 8.309613 6.71161 25.88764 25.88764 0 0 0 9.588015 11.186018 11.825218 11.825218 0 0 1 5.113608 8.629213 14.382022 14.382022 0 0 1-8.309613 0c-7.670412-3.515605-15.980025-4.474407-23.650437-7.350811s-22.052434-7.990012-31.96005-12.78402-22.052434-8.629213-31.96005-14.062422a319.600499 319.600499 0 0 1-54.012484-33.877653 4.794007 4.794007 0 0 0-3.196005 0 184.729089 184.729089 0 0 1-50.496879-52.734083 57.208489 57.208489 0 0 1-8.948814-21.732834 6.39201 6.39201 0 0 1 0-3.196005c0-3.515605 0-5.113608 4.794007-3.196005s4.154806 1.598002 6.39201 0 2.237203-5.113608 4.154807-7.350811 4.794007 0 6.71161 1.917603a73.188514 73.188514 0 0 0 38.03246 14.062422c27.166042 4.474407 54.332085 6.39201 81.817728 8.629213a499.21598 499.21598 0 0 0 54.651685 2.556804 103.870162 103.870162 0 0 0 17.578028 0 125.283396 125.283396 0 0 0 22.372034-7.990012c4.154806 2.876404 7.670412 0 11.505618 0s7.990012 4.154806 7.990013 9.588015zM526.701623 204.54432c2.237203 0 3.196005 0 3.515605-2.876405s4.474407-5.433208 8.948814-6.072409c10.227216-2.237203 19.815231-6.39201 30.042447-8.629214a459.585518 459.585518 0 0 0 55.930088-17.578027 105.787765 105.787765 0 0 0 18.217228-10.546817c4.154806-2.556804 6.39201-3.196005 7.670412 2.556804a12.464419 12.464419 0 0 0 8.948814 9.268415c1.598002-2.556804 4.154806-1.598002 6.07241 0a159.80025 159.80025 0 0 0 29.403246 4.794007 88.529338 88.529338 0 0 0 19.815231 0h4.474407a48.259675 48.259675 0 0 0 27.166042-9.907615c1.917603 0 1.917603-3.515605 2.556804-5.433209s1.598002-6.39201 5.433209-7.031211 0 5.433208 4.474407 3.515606 0 0 1.917603 0A57.52809 57.52809 0 0 1 781.10362 192.399501a63.9201 63.9201 0 0 1-4.474407 15.980025 268.464419 268.464419 0 0 0-4.794007 35.156055 90.446941 90.446941 0 0 1-7.031211 22.372034c0 2.556804-2.556804 5.113608 0 8.309613a68.074906 68.074906 0 0 1-6.71161 13.103621c-2.876404 6.39201-10.227216 10.546816-15.021224 14.701623a77.982522 77.982522 0 0 0-19.17603 5.113608 18.217228 18.217228 0 0 1-8.948814 1.598002s-3.835206 0-3.835206-3.515605 2.237203-2.876404 3.835206-3.515606a26.526841 26.526841 0 0 1 7.990013-1.917603c1.917603-1.598002 4.474407 0 6.39201-2.556804a9.268414 9.268414 0 0 1 4.474407-1.917603c3.196005 0 5.433208-1.917603 7.990012-3.196005s2.237203-2.556804 4.154807-2.876404 1.917603 0 1.917603-2.237204c0-10.227216 5.752809-18.856429 7.350811-28.764045a115.37578 115.37578 0 0 0 1.917603-31.960049c0-8.629213-2.237203-16.938826-3.515605-25.24844a69.033708 69.033708 0 0 0-6.07241-20.774032 6.39201 6.39201 0 0 0-8.629213-4.154807l-8.948814 2.237204a30.042447 30.042447 0 0 1-16.299626 0 22.372035 22.372035 0 0 0-8.309613 0 66.476904 66.476904 0 0 0-36.114856 1.917603 34.516854 34.516854 0 0 1-12.144819 2.237203 173.223471 173.223471 0 0 0-38.671661 4.154807 41.867665 41.867665 0 0 0-11.186017 4.154806c-8.948814 4.474407-19.17603 6.39201-28.444445 10.546817a217.32834 217.32834 0 0 1-57.208489 15.340824 174.501873 174.501873 0 0 1-26.526841 3.835206c-15.340824 0-30.042447 4.474407-45.063671 5.752809a281.56804 281.56804 0 0 1-38.991261 2.556804 248.009988 248.009988 0 0 1-30.362047-4.154807c-7.670412 0-15.660424 0-23.330837-2.876404l-15.660424-3.515606c-6.072409 0-10.227216-4.474407-10.546817-11.505618 0-1.917603 0-2.556804 2.556804-3.515605s10.866417-6.39201 15.980025-9.907616 2.237203 0 3.515606 0 0 2.876404 0 4.154807c-5.113608 6.71161-4.474407 8.629213 3.515605 9.588015a227.235955 227.235955 0 0 1 37.073658 8.629213 127.8402 127.8402 0 0 0 62.322098 0 266.546816 266.546816 0 0 1 41.548065-7.031211 6.39201 6.39201 0 0 0 5.113608-1.917603c0-2.876404 3.835206 0 6.072409 0a13.423221 13.423221 0 0 0 13.423221-4.794007 4.154806 4.154806 0 0 1 4.474407 2.556804z" fill="#F9F9F9" p-id="35718"></path><path d="M493.782772 425.068664a70.63171 70.63171 0 0 1 17.578027 3.196005 187.605493 187.605493 0 0 0 54.012484 2.556804 16.938826 16.938826 0 0 0 12.78402-6.71161c6.072409-7.990012 14.701623-13.742821 20.774033-22.052435a172.264669 172.264669 0 0 0 20.774032-39.950062 111.220974 111.220974 0 0 1 12.144819-21.732834c5.752809-8.309613 5.113608-9.588015-4.794007-11.186018a6.072409 6.072409 0 0 1-3.196005 0h3.196005a3.196005 3.196005 0 0 1 3.196005-1.917603h43.785268c2.876404 3.196005 0 3.835206-1.917603 3.835206h-14.382022a76.064919 76.064919 0 0 0 23.970037-2.237203 5.113608 5.113608 0 0 1 6.711611 1.917603c0 2.237203 0 4.154806-1.598003 6.39201-7.031211 11.825218-12.144819 24.609238-19.17603 36.434457a86.292135 86.292135 0 0 1-19.17603 23.011236q-6.71161 5.433208-13.10362 11.186017a54.651685 54.651685 0 0 1-24.609239 14.701623 24.289638 24.289638 0 0 0-10.866417 4.154807l-14.382022 4.154806c0 3.515605-4.474407 3.515605-7.031211 3.835206a127.8402 127.8402 0 0 1-56.569289 0 15.340824 15.340824 0 0 0-6.072409-2.556804zM517.752809 579.116105l-1.917603 7.670412c0 2.876404-2.237203 4.474407-5.113608 3.515605s-7.031211-2.876404-6.072409-8.948814c2.556804-15.980025 3.515605-31.96005 6.71161-48.579276a11.825218 11.825218 0 0 0-13.10362-14.382022 2.876404 2.876404 0 0 1-2.237204 0 5.113608 5.113608 0 0 1 0-8.309613 63.9201 63.9201 0 0 1 5.113608-6.072409 7.990012 7.990012 0 0 0 2.876405-8.309613c-2.237203-7.031211 2.237203-11.186017 6.71161-14.701623a8.948814 8.948814 0 0 0 4.154806-5.752809v-15.980025c-1.917603-2.556804-5.752809 4.154806-6.392009-1.917603a78.941323 78.941323 0 0 0 3.835205-7.350812c2.876404-5.113608 4.794007-8.309613 6.711611-7.670412s5.433208 1.598002 7.990012 1.917603a244.813983 244.813983 0 0 0 33.558053 2.237204 6.39201 6.39201 0 0 1 4.474407 0 2.556804 2.556804 0 0 1 0 4.474407 7.350811 7.350811 0 0 1-8.309613 0c2.556804 0 3.196005 2.556804 2.876404 5.113608a247.051186 247.051186 0 0 1 0 31.96005 27.805243 27.805243 0 0 0 3.835206 19.17603 84.054931 84.054931 0 0 1 11.186018 31.960049 223.72035 223.72035 0 0 0 5.113608 22.372035c0 6.39201 0 12.78402 2.237203 19.17603a6.39201 6.39201 0 0 1-4.154806 7.670412c-2.876404 0-3.515605-3.515605-3.515606-5.752809a228.194757 228.194757 0 0 0-6.39201-41.228464 44.104869 44.104869 0 0 0-8.629213-20.774033 12.144819 12.144819 0 0 0-18.85643 0 73.508115 73.508115 0 0 0-11.505618 20.454432 184.409488 184.409488 0 0 0-11.505618 29.722847c0 2.556804-2.556804 4.794007-3.196005 7.350811s0-2.876404 2.237204-1.917603 1.598002 1.917603 1.278402 2.876405zM705.677903 177.697878a75.745318 75.745318 0 0 0 37.393258-5.752809c2.876404 0 3.835206 0 5.113608 2.237203a159.80025 159.80025 0 0 1 9.907616 77.023721 72.868914 72.868914 0 0 1-6.39201 23.011235 22.052434 22.052434 0 0 0-2.237204 13.423221 4.474407 4.474407 0 0 1-3.835206 5.752809c-4.474407-5.433208-2.237203-11.186017 0-16.299625a108.98377 108.98377 0 0 0 6.07241-54.332085 82.456929 82.456929 0 0 0-5.433209-17.578027 17.897628 17.897628 0 0 0-8.309613-8.309613A50.177278 50.177278 0 0 0 693.852684 192.399501l-22.691635 9.588015a31.96005 31.96005 0 0 1-18.85643 0 100.354557 100.354557 0 0 0-37.712859 0 10.227216 10.227216 0 0 0-3.835206 0 191.7603 191.7603 0 0 1-38.35206 16.299625 112.818976 112.818976 0 0 1-25.88764 8.948814 199.111111 199.111111 0 0 1-22.372035 4.154807 131.675406 131.675406 0 0 0-13.10362 2.556804 49.538077 49.538077 0 0 1-18.85643 0 80.858926 80.858926 0 0 0-25.248439 0 303.620474 303.620474 0 0 1-55.930088 4.154806c-11.505618 0-22.691635-2.237203-33.877653-4.474407a11.505618 11.505618 0 0 0-3.835206 0 117.293383 117.293383 0 0 1-58.806492-7.670412c-3.835206 0-5.752809 6.072409-10.546816 5.433209a66.476904 66.476904 0 0 1 15.660424-12.78402c2.556804 0 3.515605-2.237203 5.113608-3.515606s5.433208-2.876404 7.350812 0a9.268414 9.268414 0 0 0 6.71161 5.113608 183.131086 183.131086 0 0 0 35.795256 6.07241c10.866417 0 21.093633 3.835206 31.96005 4.794007A189.842697 189.842697 0 0 0 447.440699 230.43196 351.560549 351.560549 0 0 1 485.153558 224.359551a219.885144 219.885144 0 0 0 35.156055-3.196005 226.277154 226.277154 0 0 0 59.765293-16.938827c10.227216-5.113608 21.413233-8.629213 31.96005-12.78402a78.621723 78.621723 0 0 1 38.991261-4.154806 34.197253 34.197253 0 0 0 21.732834-2.556804 55.610487 55.610487 0 0 1 24.289638-5.433209 16.299625 16.299625 0 0 0 8.629214-1.598002z" fill="#F9F9F9" p-id="35719"></path><path d="M502.731586 210.93633a10.866417 10.866417 0 0 1-9.588015 5.433208A233.308365 233.308365 0 0 0 447.440699 224.359551a122.406991 122.406991 0 0 1-58.806492-1.598003 261.433208 261.433208 0 0 0-41.228464-8.629213c-4.154806 0-5.113608-3.196005-2.556804-6.39201l6.71161-10.546817a112.179775 112.179775 0 0 0-20.134831 12.46442c0 4.154806-2.556804 4.794007-5.752809 2.237203l1.917603-1.917603a337.498127 337.498127 0 0 1 68.714107-37.073658 7.670412 7.670412 0 0 0 7.031211 0l15.660425-7.031211h4.154806c0.958801 0 0 2.237203-1.917603 3.196005a95.88015 95.88015 0 0 0-16.619226 20.774033 5.752809 5.752809 0 0 0 1.598003 8.629213 121.128589 121.128589 0 0 0 21.413233 13.103621 10.546816 10.546816 0 0 0 7.350812 0l47.940075-11.186018a13.423221 13.423221 0 0 0 7.350811-5.752809 16.938826 16.938826 0 0 0 11.505618 16.299626h0.958802zM578.476904 589.02372a31.96005 31.96005 0 0 0 0-21.732834c-1.917603-12.464419-5.113608-24.928839-7.670412-37.393258a67.116105 67.116105 0 0 0-8.309613-19.49563 39.950062 39.950062 0 0 1-4.474407-27.485643 217.32834 217.32834 0 0 0 0-28.444445c0-2.556804-1.598002-3.835206-4.154807-3.835206h-6.39201c6.072409-1.598002 12.464419 0 18.536829-1.917603v-2.237203a38.991261 38.991261 0 0 1 20.134832-4.794008h1.917603v140.304619c0 10.546816 0 10.546816-10.866417 9.588015-1.917603-2.556804 0-2.876404 1.278402-2.556804zM599.570537 426.347066s-2.237203 0 0-1.917603a83.41573 83.41573 0 0 0 39.630462-24.609238 118.891386 118.891386 0 0 0 34.836454-46.022472c2.556804-6.072409 6.072409-11.825218 9.268415-17.578028s3.196005-2.876404 1.598002-5.113608-3.835206 0-5.752809 0a219.565543 219.565543 0 0 1-31.96005 0c9.588015-1.917603 19.49563 0 28.764045-1.917603 0-2.876404 2.876404-3.515605 4.794008-3.835206 9.268414 0 18.217228-1.917603 27.485643-2.556804a44.74407 44.74407 0 0 0 16.938826-2.237203c2.237203 0 4.474407-1.917603 6.39201 0s0 4.474407 0 6.39201a118.571785 118.571785 0 0 1-20.134831 30.362047 3.515605 3.515605 0 0 0 0 3.515606 152.449438 152.449438 0 0 1-27.485643 25.248439 231.710362 231.710362 0 0 1-84.374532 40.269663zM255.6804 368.179775a12.144819 12.144819 0 0 1-6.07241 4.154807 196.873908 196.873908 0 0 1-35.156055 16.299625 57.52809 57.52809 0 0 1-16.619226 3.515606 22.052434 22.052434 0 0 1-14.382022-7.990013c-3.515605-2.876404-3.196005-5.433208 0-6.39201s8.309613-5.113608 10.546816-10.227216c6.072409-13.423221 11.825218-27.166042 17.258427-40.908864 2.237203-5.752809 5.113608-11.186017 7.350812-17.258427s0-5.113608 4.474407-5.113608 1.917603 5.752809 0 8.629214-4.474407 10.866417-5.752809 16.619226a17.578027 17.578027 0 0 0 8.309613 19.49563 7.670412 7.670412 0 0 0 7.031211 0 31.96005 31.96005 0 0 0 14.701623-10.546816 115.695381 115.695381 0 0 0 19.49563-44.104869 52.094881 52.094881 0 0 1 8.948814-17.258427h1.598002a11.505618 11.505618 0 0 1 0 5.752809 182.491885 182.491885 0 0 1-15.660424 73.508115c2.237203 7.031211-3.515605 7.670412-6.072409 11.825218z" fill="#F9F9F9" p-id="35720"></path><path d="M326.31211 211.895131a12.144819 12.144819 0 0 0 5.752809-2.237203c2.876404 7.990012 9.588015 9.588015 16.619226 10.866417a331.106117 331.106117 0 0 0 77.982522 9.588015A306.816479 306.816479 0 0 0 479.400749 222.761548c9.268414-2.237203 18.856429-1.917603 28.124844-3.196005s15.021223-2.876404 22.372035-3.835206a271.980025 271.980025 0 0 0 46.981273-13.423221 289.558052 289.558052 0 0 1 48.579276-16.619226 102.911361 102.911361 0 0 1 13.742822-1.598002 183.450687 183.450687 0 0 0 40.269663-5.752809c8.309613-1.598002 16.938826 0 25.56804 0a7.350811 7.350811 0 0 1-5.752809 3.196005 95.88015 95.88015 0 0 0-31.96005 9.907615 15.021223 15.021223 0 0 1-10.546817 0 80.858926 80.858926 0 0 0-39.630462 0.958802 206.781523 206.781523 0 0 0-37.712859 14.701623 173.543071 173.543071 0 0 1-40.269663 12.464419 127.8402 127.8402 0 0 1-27.805243 5.752809 91.405743 91.405743 0 0 1-24.289638 0 66.157303 66.157303 0 0 0-22.052434 2.237204c-11.825218 0-23.650437 3.835206-35.795256 4.794007a177.697878 177.697878 0 0 1-48.259676-4.474407 26.207241 26.207241 0 0 0-6.71161 0A140.304619 140.304619 0 0 1 334.621723 224.359551a7.990012 7.990012 0 0 1-7.031211-5.433209c0-4.474407-2.876404-4.474407-5.433209 0a3.196005 3.196005 0 0 1-4.154806 0 20.454432 20.454432 0 0 1 8.309613-7.031211zM279.330836 279.650437c-8.309613 14.382022-9.588015 31.96005-17.258427 45.702871a58.167291 58.167291 0 0 1-24.928838 28.764045 9.588015 9.588015 0 0 1-11.505618 0c-10.227216-9.588015-12.144819-13.10362-8.948814-24.609238a196.554307 196.554307 0 0 0 7.031211-22.372035s-1.598002 0 0-1.598003 2.237203-11.505618 7.350811-15.340824 3.196005 1.598002 3.196005 3.835206a15.660424 15.660424 0 0 1 0 3.835206c0 3.515605-3.196005 7.031211 0 10.227216a11.505618 11.505618 0 0 0 12.46442 0 24.928839 24.928839 0 0 0 13.42322-10.866417 77.343321 77.343321 0 0 1 16.619226-21.413233h2.876405z" fill="#F9F9F9" p-id="35721"></path><path d="M295.310861 242.89638l1.917603-2.237204h1.917603a17.258427 17.258427 0 0 1 1.917603 15.660424 9.588015 9.588015 0 0 1-9.588015 0 52.094881 52.094881 0 0 0-16.619226-5.752808c-8.948814-4.474407-17.578027-10.227216-26.526841-14.701623s-7.670412 0-7.990012 4.154806a140.94382 140.94382 0 0 1-4.794008 31.96005c0 4.154806-2.876404 8.309613-4.154806 12.464419-5.433208 11.505618-10.227216 23.330836-15.660425 34.836455-3.196005 6.39201-5.433208 8.309613-10.227216 8.309613a8.629213 8.629213 0 0 1-6.072409-2.876405c-2.237203-2.237203-3.835206-1.917603-5.113608 0a17.897628 17.897628 0 0 1-2.556804 5.113608c-1.917603 1.598002-3.835206 2.556804-3.835206 0a21.093633 21.093633 0 0 1 0-3.196005 250.247191 250.247191 0 0 0 27.485643-63.9201 53.373283 53.373283 0 0 0 4.474407-13.10362c0-1.917603 0-4.154806 2.876404-4.474407 7.350811 0 9.268414-7.670412 12.78402-12.78402s6.072409-6.71161 12.144819-5.113608a76.70412 76.70412 0 0 1 19.49563 8.948814 58.486891 58.486891 0 0 0 23.011236 8.309613c1.598002-0.958801 3.515605 0 5.113608-1.598002z" fill="#F9F9F9" p-id="35722"></path><path d="M299.146067 240.978777a27.805243 27.805243 0 0 1 5.752809-7.031211 157.563046 157.563046 0 0 0 27.485643 8.309613 207.420724 207.420724 0 0 0 39.310862 1.917603 82.456929 82.456929 0 0 1 17.897628 1.917603 339.09613 339.09613 0 0 0 85.333333 0 36.114856 36.114856 0 0 1 23.970038 2.237203 27.166042 27.166042 0 0 1 2.237203 4.794008 82.137328 82.137328 0 0 1 0 8.309612s-2.556804 3.515605-5.113608 2.556804a71.270911 71.270911 0 0 0-31.96005 0h-43.465668c-14.382022 0-37.073658-5.113608-56.249688-5.433208a220.204744 220.204744 0 0 1-55.610487-9.588015 19.815231 19.815231 0 0 1-9.588015-7.990012zM509.762797 456.069913c3.515605 0 3.835206-4.154806 5.433208-6.07241s0-1.598002 2.237203 0 0 0 0 2.237204a113.458177 113.458177 0 0 1-2.556804 28.444444 6.39201 6.39201 0 0 1-4.154806 4.154807 7.990012 7.990012 0 0 0-5.433208 10.227216 10.866417 10.866417 0 0 1-3.835206 11.825218c-3.196005 2.556804-6.71161 5.113608-5.752809 10.227216a9.907615 9.907615 0 0 1-1.917603 4.154806 253.443196 253.443196 0 0 0-27.805244 40.269663 77.662921 77.662921 0 0 1-7.670412 9.268415 8.629213 8.629213 0 0 0-1.598002 3.515605l-15.021224 15.980025a3.196005 3.196005 0 0 1-2.237203 0v-4.474407a212.534332 212.534332 0 0 0 18.217228-28.764045 148.294632 148.294632 0 0 1 11.186018-13.742821 53.373283 53.373283 0 0 0 10.546816-21.732834c0-4.794007 5.113608-8.629213 6.39201-13.423221s1.598002-4.474407 0-6.71161 0-4.474407 0-6.711611c6.71161-10.866417 12.78402-22.052434 19.495631-31.96005a2.556804 2.556804 0 0 0 0-1.598002zM278.372035 276.134831c-7.350811 8.948814-13.10362 18.536829-20.134832 27.805244a21.732834 21.732834 0 0 1-23.330836 8.948814c-6.072409 0-7.990012-3.515605-6.71161-10.227216s1.917603-7.670412 3.196005-11.505618a36.434457 36.434457 0 0 1 3.835206-11.825219 148.294632 148.294632 0 0 0 6.39201-28.764044 3.196005 3.196005 0 0 1 3.515605-2.556804 7.670412 7.670412 0 0 1 4.474407 3.515605 177.697878 177.697878 0 0 1-3.515605 26.526841 5.752809 5.752809 0 0 0 1.917603 6.39201h6.39201a144.459426 144.459426 0 0 1 23.330836-10.227216h1.917603v3.196005z" fill="#F9F9F9" p-id="35723"></path><path d="M231.071161 291.156055a57.208489 57.208489 0 0 0-7.031211 15.980025 307.13608 307.13608 0 0 0-15.660424 34.836454c-4.794007 11.505618-9.268414 23.011236-13.423221 34.516854a6.71161 6.71161 0 0 1-7.670412 5.113608s-3.196005 0-3.835206 1.917603 0 2.237203 2.237203 2.876405a21.413233 21.413233 0 0 0 19.495631 3.196005 181.213483 181.213483 0 0 0 35.795256-13.742822c2.876404 0 5.433208-4.154806 9.268414-3.835206a111.220974 111.220974 0 0 1-49.538077 20.454432 23.970037 23.970037 0 0 1-23.970038-13.423221c0-1.917603-1.598002-3.515605 0-5.433208a81.498127 81.498127 0 0 1 12.46442-11.505618 98.756554 98.756554 0 0 0 15.660424-22.372035v-6.711611a238.102372 238.102372 0 0 0 23.011236-48.579276 107.385768 107.385768 0 0 0 9.588015-34.516853v-12.46442a5.433208 5.433208 0 0 1 8.948814-4.154806c17.578027 10.227216 35.795256 19.815231 53.053683 31.960049 3.196005 2.237203 4.794007 4.474407 2.237203 7.990013a20.454432 20.454432 0 0 1 0 9.268414 2.556804 2.556804 0 0 1-2.876404-1.598002 63.9201 63.9201 0 0 0-31.96005-28.124844 173.223471 173.223471 0 0 0-15.340824-8.629213c-7.670412-3.196005-7.990012-3.515605-10.546816 4.154806a11.186017 11.186017 0 0 0 0 3.835206 102.59176 102.59176 0 0 1-7.670412 31.96005c0 2.876404-1.917603 5.752809-3.196005 8.629213z" fill="#F9F9F9" p-id="35724"></path><path d="M588.384519 440.729089a56.569288 56.569288 0 0 1-22.372035 7.031211 122.406991 122.406991 0 0 1-44.74407-3.515606c-2.876404 0-4.154806-1.598002-3.835206-2.237203s2.876404-3.196005 4.154807-7.350812a130.397004 130.397004 0 0 0 23.970037 2.556804 165.553059 165.553059 0 0 0 42.826467-7.350811z" fill="#B21F20" p-id="35725"></path><path d="M295.310861 242.89638c0 4.474407-3.835206 3.515605-6.71161 3.196005a45.06367 45.06367 0 0 1-19.495631-6.39201l-16.938826-8.948814c-8.309613-3.835206-10.866417-2.876404-15.660424 4.794007a48.579276 48.579276 0 0 0-6.39201 9.907616 3.196005 3.196005 0 0 1-4.154807 1.917603c-4.154806 0-5.113608 0-6.39201 4.154806s0 7.990012-4.794007 10.227216a191.7603 191.7603 0 0 1 8.948814-31.96005 20.134831 20.134831 0 0 1 25.248439-12.78402 72.549313 72.549313 0 0 1 17.578027 7.990013zM228.833958 285.403246a358.59176 358.59176 0 0 1-20.774033 49.218477 49.857678 49.857678 0 0 1-15.980025 19.815231 28.444444 28.444444 0 0 0-15.021223 20.454432 6.39201 6.39201 0 0 1 0 4.794007 21.093633 21.093633 0 0 1-3.196005-17.897628 95.88015 95.88015 0 0 1 12.144819-31.96005c5.752809-3.196005 5.752809-9.588015 7.670412-11.825218s0-3.515605 3.196005-3.835206 1.917603 2.237203 2.556804 3.835206a6.71161 6.71161 0 0 0 6.39201 4.794007 7.350811 7.350811 0 0 0 7.350811-5.433208l15.660425-35.475656a2.556804 2.556804 0 0 1 0 3.515606zM442.007491 587.745318c-3.196005 2.556804-7.031211 0-10.227216 0s0-2.556804 0-4.154806l12.78402-21.413234 19.815231-31.96005c0-8.629213 5.433208-14.062422 9.268414-20.454431a16.938826 16.938826 0 0 0 6.711611-7.031211c3.835206 0 3.515605 1.917603 3.196005 4.154806a60.084894 60.084894 0 0 1-12.46442 31.96005 511.360799 511.360799 0 0 0-29.722846 44.74407 1.917603 1.917603 0 0 0 0.639201 4.154806zM498.257179 516.794007c5.433208-3.196005 9.268414 0 13.423221 2.876405a8.948814 8.948814 0 0 1 3.515605 11.186017 208.699126 208.699126 0 0 0-3.515605 22.372035l-3.835206 28.124844a7.670412 7.670412 0 0 0 3.196005 8.309613c-10.227216 0-10.227216 0-9.588015-8.948814s0-12.464419 0-18.536829v-24.289638c0-2.876404-3.196005-3.515605-3.196005-6.39201v-10.227216c0-3.196005-1.278402-2.876404 0-4.474407z" fill="#F9F9F9" p-id="35726"></path><path d="M740.833958 298.826467a57.84769 57.84769 0 0 0 16.299625-10.546817 84.374532 84.374532 0 0 1-11.505618 23.650437 18.856429 18.856429 0 0 1-10.546816 8.309613c-13.742821 0-26.846442 4.474407-40.269663 6.07241-2.556804 0-6.072409 0-6.711611-2.876405a6.072409 6.072409 0 0 1 5.113608-7.350811 138.706617 138.706617 0 0 1 22.691636-6.39201 50.177278 50.177278 0 0 0 24.928839-10.866417z" fill="" p-id="35727"></path><path d="M442.007491 587.745318c-2.237203-3.196005 0-5.433208 1.917603-7.670412a407.810237 407.810237 0 0 1 27.166042-41.548065 55.610487 55.610487 0 0 0 9.907616-34.516853c8.629213-15.660424 17.897628-31.96005 27.166042-46.022472 0 4.794007-2.876404 7.990012-5.113608 11.825218s-9.907615 16.619226-15.340824 25.56804c7.350811 0 6.71161 2.876404 5.113608 6.711611a172.90387 172.90387 0 0 1-26.207241 46.981273 166.19226 166.19226 0 0 0-16.619226 25.88764z" fill="#F9F9F9" p-id="35728"></path><path d="M474.287141 512c1.917603 2.237203 0 3.835206 0 5.433208l-8.629213 15.021224c0-4.154806-3.196005-3.196005-5.113608-3.835206a31.96005 31.96005 0 0 1-19.815231-41.228464c2.556804 20.454432 13.742821 28.764045 33.558052 24.609238zM572.724095 589.982522a36.434457 36.434457 0 0 1-3.196005-13.103621 159.80025 159.80025 0 0 0-10.866417-37.073658c-4.154806-8.309613-7.350811-9.907615-15.660425-9.268414-2.556804-1.598002-1.917603-3.835206 0-5.752809a11.825218 11.825218 0 0 1 22.372035 0 22.372035 22.372035 0 0 0 2.237204 4.474407 63.9201 63.9201 0 0 1 2.556804 10.546816c2.556804 12.144819 5.433208 24.289638 6.71161 36.754058a36.114856 36.114856 0 0 0 0 6.072409 4.474407 4.474407 0 0 1-4.154806 7.350812z" fill="#F9F9F9" p-id="35729"></path><path d="M568.249688 540.764045l-2.237204-10.227216a25.88764 25.88764 0 0 0-6.71161-10.227216c-4.794007-3.835206-6.072409-3.515605-11.186018 0a41.228464 41.228464 0 0 0-10.866417 15.021223 122.406991 122.406991 0 0 0-17.258427 38.03246c0 1.917603 0 3.835206-2.237203 5.752809s-2.237203 5.752809-4.794008 7.990012 0-3.196005 0-4.794007a319.600499 319.600499 0 0 1 18.536829-50.496879 46.661673 46.661673 0 0 1 11.825219-15.340824 13.10362 13.10362 0 0 1 20.774032 4.154806 75.745318 75.745318 0 0 1 6.07241 16.619226 294.35206 294.35206 0 0 1 7.990012 51.455681h-4.474407a19.815231 19.815231 0 0 0 2.237204-12.46442 228.833958 228.833958 0 0 0-7.670412-35.475655zM241.617978 250.886392c0-11.505618 0-16.619226 13.423221-8.629213a209.018727 209.018727 0 0 1 39.310861 25.568039 21.093633 21.093633 0 0 1 7.990012 14.062422c-2.556804 5.433208-6.072409 2.237203-8.948814 0s-5.113608 0-4.794007 3.196005a10.546816 10.546816 0 0 0-8.948814-9.588015v-1.917603a1.917603 1.917603 0 0 1 0-3.196005c5.113608 0 2.876404-3.835206 0-6.072409a41.228464 41.228464 0 0 0-6.711611-5.113608c-4.154806-2.876404-8.629213-5.113608-12.464419-7.990012a18.536829 18.536829 0 0 0-15.660424-2.876405l-2.237204 2.237204s-0.639201 1.278402-0.958801 0.3196zM735.081149 316.084894c4.794007-2.237203 8.948814-3.835206 12.464419-5.752809 0 2.876404-2.237203 5.433208-3.196005 7.031211a229.473159 229.473159 0 0 1-35.475655 43.785268 4.154806 4.154806 0 0 1 0-4.154806 250.566792 250.566792 0 0 0 17.897628-31.96005s1.917603-2.237203 0-3.515606-2.556804 0-3.835206 0-10.227216 3.835206-15.660425 1.598003v-1.598003c9.907615-1.278402 18.217228-3.835206 27.805244-5.433208zM498.257179 516.794007v3.515606a16.619226 16.619226 0 0 1-5.113608 9.268414 17.897628 17.897628 0 0 0-6.39201 13.423221c-10.546816 9.268414-19.17603 20.454432-29.722847 30.042447-2.556804 0-3.515605 2.237203-5.433208 2.876405 13.742821-14.701623 21.413233-33.558052 34.197253-49.218477a50.496879 50.496879 0 0 1 10.546817-10.227216zM346.766542 355.715356c2.876404 0 4.154806 0 6.072409 2.556804a294.991261 294.991261 0 0 0 70.631711 39.950062c11.505618 4.474407 22.372035 10.227216 33.877653 14.062422a364.66417 364.66417 0 0 0 35.156055 10.546817h1.917603a357.952559 357.952559 0 0 1-69.033708-23.330837 325.992509 325.992509 0 0 1-78.621723-43.785268zM263.350811 359.870162c2.237203-8.309613 5.752809-16.299625 7.990013-24.928839s3.196005-23.330836 5.433208-34.836454c0-5.113608 2.556804-9.907615 3.835206-14.701623a23.011236 23.011236 0 0 1 0 9.268414v23.650437a61.363296 61.363296 0 0 1-12.78402 37.393259c-0.3196 1.598002-1.598002 4.154806-4.474407 4.154806z" fill="#F9F9F9" p-id="35730"></path><path d="M487.710362 543.96005c-3.196005 0-5.113608 0-3.515605-4.474407a50.816479 50.816479 0 0 1 15.021223-18.217229 95.88015 95.88015 0 0 1 2.556804 42.506867v-21.732834c0-7.350811-1.598002-4.794007-5.113608-2.876405zM263.350811 359.870162a51.45568 51.45568 0 0 0 15.980025-31.96005 163.315855 163.315855 0 0 0 0-26.207241 15.660424 15.660424 0 0 1 0-7.670412 101.952559 101.952559 0 0 1 0 41.548065 57.84769 57.84769 0 0 1-23.330836 31.96005c-0.3196-3.835206 6.072409-4.154806 7.350811-7.670412zM537.248439 535.011236c-1.598002-5.113608 2.556804-8.309613 4.474407-12.144819s0 0 1.598003 0 7.031211-7.990012 12.78402-5.433209a15.660424 15.660424 0 0 1 9.907615 14.701623 87.250936 87.250936 0 0 0-6.71161-8.309613 8.948814 8.948814 0 0 0-14.382023 3.835206l2.556804 2.556804-4.474407 1.917603z" fill="#F9F9F9" p-id="35731"></path><path d="M735.081149 316.084894a108.66417 108.66417 0 0 1-26.207241 8.309613 195.915106 195.915106 0 0 1-31.96005 4.474407 371.05618 371.05618 0 0 1-39.950063 0h-7.670412a302.022472 302.022472 0 0 1-42.506866-8.948814A186.007491 186.007491 0 0 1 543.320849 299.785268v-2.556804c6.71161-1.917603 2.876404-4.474407 0-6.71161s-4.474407-4.794007 0-7.350812 5.752809 1.598002 8.309613 3.196005a127.8402 127.8402 0 0 0 47.300874 18.85643h11.505618a101.313358 101.313358 0 0 0 52.414482 5.433208c5.433208 0 10.546816 1.598002 15.660424 0a106.107366 106.107366 0 0 0 25.24844-3.515605h7.990012a260.154806 260.154806 0 0 0 26.207241-8.948814c5.113608-2.876404-2.556804 3.196005-4.474407 3.835206a119.850187 119.850187 0 0 1-25.56804 8.309613 93.642946 93.642946 0 0 0-17.258427 6.072409c-1.917603 0-4.154806 1.917603-3.515605 4.474407s3.196005 1.917603 5.433208 1.917603a179.935081 179.935081 0 0 0 31.96005-7.031211 8.629213 8.629213 0 0 1 10.546817 0.319601z" fill="" p-id="35732"></path><path d="M546.516854 284.764045c0 2.876404 2.237203 3.196005 3.515605 4.474407a8.309613 8.309613 0 0 1 3.515606 5.433208c0 5.433208 0 6.39201-5.752809 5.433209H543.320849l-9.588015-5.113608-15.980025-8.629214a12.78402 12.78402 0 0 1-4.794008-4.154806 43.465668 43.465668 0 0 1-16.299625-15.660425c-1.917603-2.876404 0-5.433208 0-7.670412v-7.03121c5.752809-7.031211 12.144819-7.031211 17.578027 0s6.072409 6.71161 9.268415 9.907615 4.794007 1.598002 7.031211 2.876404 3.515605 7.350811 8.309613 7.670412 4.794007 5.113608 7.350811 7.031211a2.876404 2.876404 0 0 1 0.319601 5.433209z" fill="" p-id="35733"></path><path d="M228.833958 285.403246V281.88764a134.23221 134.23221 0 0 0 9.268414-41.228464c0-9.268414 4.474407-11.505618 12.46442-7.350811l24.289637 13.10362 10.866417 5.113608 14.382023 7.670412a454.15231 454.15231 0 0 0 63.9201 10.866417 125.602996 125.602996 0 0 1 29.722846 5.433208 303.940075 303.940075 0 0 0 56.888889 7.990013l33.558053 2.237203a63.9201 63.9201 0 0 0 27.166042-5.433208h3.196005a62.002497 62.002497 0 0 0 9.268414 7.990012l5.113608 2.876405c0 1.598002-5.752809 1.917603-7.350811 2.876404a73.188514 73.188514 0 0 1-34.836454 7.031211c-23.330836 0-46.342072-2.237203-69.672909-3.835206s-45.702871-3.515605-68.074907-7.350811L338.137328 288.27965a71.910112 71.910112 0 0 1-34.836454-15.980025c-2.237203-8.309613-10.546816-10.866417-15.660425-15.980025-11.825218-7.350811-24.289638-14.062422-36.754057-21.093632-5.113608-2.876404-8.629213-1.598002-9.268414 4.474407a157.882647 157.882647 0 0 1-7.670412 36.114856 24.609238 24.609238 0 0 1-5.113608 9.588015zM714.626717 307.775281a116.334582 116.334582 0 0 1-31.96005 5.433208h-9.588015s-2.876404 0-2.876405-2.237203 0-2.237203 2.556804-2.556804h13.742822a40.269663 40.269663 0 0 0 8.309613 0 7.990012 7.990012 0 0 0 3.196005-14.382023 107.066167 107.066167 0 0 0-23.970038-19.17603c-6.39201-3.515605-11.186017-9.588015-17.578027-13.423221a41.228464 41.228464 0 0 0-23.330837-6.392009 129.438202 129.438202 0 0 0-31.96005 4.474406 139.345818 139.345818 0 0 1-25.88764 3.196005 62.002497 62.002497 0 0 0-20.454432 6.39201 28.444444 28.444444 0 0 1-21.732834 4.154807 10.546816 10.546816 0 0 1-5.113608-3.515606c-2.556804-2.556804-5.752809-4.794007-8.309613-7.670412s-2.556804-2.237203 0-4.474407a5.433208 5.433208 0 0 1 3.515605 0 255.6804 255.6804 0 0 0 71.270912-22.052434A74.466916 74.466916 0 0 1 632.808989 224.359551a281.88764 281.88764 0 0 0 31.96005 0 47.620474 47.620474 0 0 0 17.578027-5.113608 120.169788 120.169788 0 0 1 31.96005-5.752809 13.423221 13.423221 0 0 1 7.990013 2.556804 5.752809 5.752809 0 0 1 3.196005 8.309613 130.077403 130.077403 0 0 1-14.701623 25.56804c-4.154806 6.71161-3.515605 10.546816 3.196005 14.382022a23.330836 23.330836 0 0 1 12.464419 30.042447c0 2.876404 0 6.39201-2.556804 8.629213l-8.948814 2.876405c-1.917603 0.639201-1.917603 0.958801-0.3196 1.917603z" fill="#F9F9F9" p-id="35734"></path><path d="M496.978777 248.649189a130.397004 130.397004 0 0 0-41.548065 0 334.941323 334.941323 0 0 1-63.9201 0c-11.825218 0-23.650437 0-35.156055-1.917603a144.459426 144.459426 0 0 1-40.908864-6.39201 27.485643 27.485643 0 0 1-10.866417-7.350812c3.835206 0 5.752809-4.794007 8.948814-7.031211a68.394507 68.394507 0 0 0 34.836454 10.546817 83.41573 83.41573 0 0 0 25.887641 0 80.219725 80.219725 0 0 1 21.093633 2.556804 138.067416 138.067416 0 0 0 36.754057 2.237203c15.660424-1.917603 31.96005-3.196005 47.300874-6.072409a20.454432 20.454432 0 0 1 11.825219 0 13.742821 13.742821 0 0 0 5.752809 0 372.973783 372.973783 0 0 0 39.950062-5.752809 246.411985 246.411985 0 0 0 63.9201-22.372035 82.776529 82.776529 0 0 1 53.373283-5.752809 50.496879 50.496879 0 0 0 27.485643-5.752809 85.013733 85.013733 0 0 1 31.96005-7.670412 31.96005 31.96005 0 0 1 35.475656 27.166042 103.230961 103.230961 0 0 1-2.237204 51.13608 54.651685 54.651685 0 0 0-4.474407 23.011236 7.031211 7.031211 0 0 1 0 4.474407l-7.350811 5.433208c-3.835206-2.876404-2.237203-6.71161-1.917603-10.227216a159.80025 159.80025 0 0 0 0-21.093633 20.774032 20.774032 0 0 0 0-7.990012 21.093633 21.093633 0 0 1 0-15.980025c0-4.474407 0-9.268414 3.196005-13.423221 5.752809-14.701623-13.10362-29.083645-24.928839-26.846442a98.117353 98.117353 0 0 0-22.691636 5.752809 95.88015 95.88015 0 0 1-46.022472 8.309613h-12.144819a50.816479 50.816479 0 0 0-24.289638 5.433209 368.179775 368.179775 0 0 1-52.414482 19.815231 242.89638 242.89638 0 0 1-35.475655 7.031211 21.093633 21.093633 0 0 0-6.07241 1.917603 12.464419 12.464419 0 0 0-15.340823-3.196005z" fill="#F9F9F9" p-id="35735"></path><path d="M742.43196 295.630462a31.96005 31.96005 0 0 1 1.917603-20.134832 115.37578 115.37578 0 0 0 6.07241-47.940074 44.424469 44.424469 0 0 0-7.990013-23.011236 34.516854 34.516854 0 0 0-24.928839-12.144819 35.795256 35.795256 0 0 0-15.980025 0 271.021223 271.021223 0 0 0-33.558052 11.186017 29.083645 29.083645 0 0 1-18.536829 0 87.250936 87.250936 0 0 0-31.96005 0 21.413233 21.413233 0 0 0-9.907616 4.154807 12.78402 12.78402 0 0 1-3.835206 2.237203c-19.49563 5.752809-37.073658 15.980025-57.208489 20.134832a249.60799 249.60799 0 0 1-35.156055 8.629213 54.332085 54.332085 0 0 1-24.289638 0 14.382022 14.382022 0 0 0-6.71161 0 425.707865 425.707865 0 0 1-59.765294 6.07241 303.620474 303.620474 0 0 1-42.187266-4.474407 14.062422 14.062422 0 0 0-5.752809 0 85.652934 85.652934 0 0 1-41.228464-2.876405 41.867665 41.867665 0 0 1-12.78402-3.515605 8.309613 8.309613 0 0 1-5.433209-6.711611s1.598002-2.876404 3.196005 0a47.940075 47.940075 0 0 0 31.96005 9.268415c20.774032 1.598002 41.228464 2.237203 61.682897 5.433208a146.377029 146.377029 0 0 0 43.146067-2.237203l31.96005-4.474407a14.701623 14.701623 0 0 1 6.07241 0 51.775281 51.775281 0 0 0 24.609238 0l15.660424-2.556804a203.585518 203.585518 0 0 0 43.785269-12.78402l36.754057-15.021224a61.363296 61.363296 0 0 1 37.073658-3.196005 54.012484 54.012484 0 0 0 39.310862-5.113608 63.9201 63.9201 0 0 1 36.114856-6.072409 34.197253 34.197253 0 0 1 31.96005 33.877653 105.468165 105.468165 0 0 1-6.39201 54.651685 47.620474 47.620474 0 0 0-1.598002 16.938826z" fill="#F9F9F9" p-id="35736"></path><path d="M723.895131 302.342072a18.536829 18.536829 0 0 1 0-10.227216 21.093633 21.093633 0 0 0-11.505618-25.88764 31.96005 31.96005 0 0 1-6.71161-5.113608C703.121099 256.3196 703.121099 253.123596 706.636704 249.60799a123.046192 123.046192 0 0 0 14.701623-25.248439c2.556804-6.39201 0-9.907615-6.71161-9.588015a78.941323 78.941323 0 0 0-28.124844 4.474407 119.530587 119.530587 0 0 1-47.300874 8.629213h-6.39201a78.302122 78.302122 0 0 0-39.310862 9.907616 216.049938 216.049938 0 0 1-73.827715 21.093632c-3.835206 0-5.113608-2.876404-6.711611-5.433208s3.835206-4.154806 6.711611-4.154806a116.654182 116.654182 0 0 0 23.650437-3.835206 149.892634 149.892634 0 0 0 23.330836-6.711611c14.062422-6.39201 29.083645-10.227216 42.826467-18.217228a22.052434 22.052434 0 0 1 11.186018-2.237204h36.754057a75.425718 75.425718 0 0 0 25.24844-6.39201 242.89638 242.89638 0 0 1 27.166042-7.031211 26.207241 26.207241 0 0 1 23.970038 13.103621 7.990012 7.990012 0 0 1 0 5.113608 81.498127 81.498127 0 0 1-9.907616 26.207241c-1.917603 3.196005-3.196005 6.39201 0 8.948813a22.372035 22.372035 0 0 1 7.670412 17.897628 149.253433 149.253433 0 0 1-1.917603 22.052435 4.794007 4.794007 0 0 1-1.598002 2.876404 9.588015 9.588015 0 0 1-4.154807 1.278402z" fill="#F9F9F9" p-id="35737"></path><path d="M729.64794 300.104869a25.56804 25.56804 0 0 1 0-12.46442 45.702871 45.702871 0 0 0 0-20.454432 10.866417 10.866417 0 0 0-6.39201-7.670412c-5.752809-2.556804-6.39201-4.794007-2.237203-9.907615a59.765293 59.765293 0 0 0 10.546816-22.691635 16.938826 16.938826 0 0 0-19.49563-20.454432 306.496879 306.496879 0 0 0-40.908864 11.825218 21.732834 21.732834 0 0 1-8.309613 1.598003h-41.228465a27.485643 27.485643 0 0 0-11.505618 2.876404 433.697878 433.697878 0 0 1-49.218477 19.815231 209.338327 209.338327 0 0 1-38.991261 7.990013 15.980025 15.980025 0 0 0-7.031211 2.237203c-2.237203 0-3.515605 0-3.515605-3.515605a8.629213 8.629213 0 0 1 7.990012-4.474407 196.873908 196.873908 0 0 0 58.486892-15.021224 322.157303 322.157303 0 0 0 31.96005-14.062422 36.754057 36.754057 0 0 1 21.413233-2.876404 207.101124 207.101124 0 0 0 31.96005 0 51.775281 51.775281 0 0 0 20.134832-6.07241 98.756554 98.756554 0 0 1 26.846442-7.670412 27.805243 27.805243 0 0 1 29.403246 17.258427 12.144819 12.144819 0 0 1 0 8.948814c0 6.39201-2.876404 13.10362-4.474407 19.495631a19.17603 19.17603 0 0 0 0 11.825218 38.991261 38.991261 0 0 1 0 20.454432 103.230961 103.230961 0 0 0-1.598003 20.454432zM515.515605 281.248439h-2.237203c-2.556804 0-4.154806 0-6.072409-2.556804a12.464419 12.464419 0 0 0-9.588015-2.876404 471.730337 471.730337 0 0 1-61.682897 0c-27.805243-2.556804-55.610487-6.072409-83.735331-7.670412a170.347066 170.347066 0 0 1-34.516854-5.433209 23.650437 23.650437 0 0 0-16.938826 0 3.196005 3.196005 0 0 1-3.196005 0 50.177278 50.177278 0 0 1-12.46442-7.990012c3.196005 0 5.113608 0 7.670412 2.237203s4.794007 2.237203 7.350812 0-2.876404-8.948814 0-13.742821c6.072409 0 10.546816 5.433208 16.619226 6.711611a237.143571 237.143571 0 0 0 44.424469 6.392009c31.96005 0 60.724095 5.113608 91.086143 3.835206l31.96005-1.917603a17.258427 17.258427 0 0 1 8.948814 0h3.515605a98.756554 98.756554 0 0 0 18.856429 23.011236z" fill="#F9F9F9" p-id="35738"></path><path d="M300.104869 254.401998c-1.917603 2.556804-4.154806 2.237203-6.39201 0l-8.309613-3.515606a19.17603 19.17603 0 0 1-10.227216-5.752809 63.9201 63.9201 0 0 1 16.299625 6.07241 21.732834 21.732834 0 0 0 8.629214 3.196005z" fill="#F9F9F9" p-id="35739"></path><path d="M511.360799 251.205993l3.835206 3.515605 4.474407 4.154806 8.629213 9.588015a82.137328 82.137328 0 0 1-16.938826-13.742821c-6.072409-6.39201-7.670412-2.237203-15.021223 2.556804a8.629213 8.629213 0 0 1 0-7.670412c5.433208-4.474407 10.227216-1.917603 15.021223 1.598003z" fill="" p-id="35740"></path><path d="M277.093633 273.897628c-9.268414 4.794007-18.217228 9.588015-27.485643 14.062422-4.154806 0.3196-6.71161 0.3196-6.71161-5.433209a157.243446 157.243446 0 0 1 4.474407-31.960049c2.237203-2.237203 4.474407 0 6.072409 0 7.350811 5.433208 14.062422 11.186017 21.413233 16.299625a4.794007 4.794007 0 0 1 2.237204 7.031211z" fill="#F9F9F9" p-id="35741"></path><path d="M277.093633 273.897628l-29.722846-21.732834-2.237204-3.515605c0-4.794007 4.474407-5.433208 8.629214-3.835206a133.273408 133.273408 0 0 1 30.362047 18.856429 7.990012 7.990012 0 0 1 3.515605 5.113608v5.752809c0 1.598002-3.196005 0-4.794007 0h-5.752809zM241.617978 250.886392a88.848939 88.848939 0 0 1-11.505618 40.269663 102.27216 102.27216 0 0 1 6.072409-19.495631 84.054931 84.054931 0 0 0 5.433209-20.774032zM177.378277 374.571785c-2.237203-8.309613-1.917603-11.825218 4.474407-15.980025a141.902622 141.902622 0 0 0 26.526842-23.970037 63.9201 63.9201 0 0 1-18.217229 31.96005 53.692884 53.692884 0 0 1-12.78402 7.990012zM568.249688 540.764045a95.88015 95.88015 0 0 1 7.031211 36.754057c-2.876404-12.144819-5.433208-24.289638-7.031211-36.754057zM533.732834 271.660424a39.950062 39.950062 0 0 0 21.732834-5.752809 54.012484 54.012484 0 0 1 19.815231-6.39201c11.186017 0 21.732834-5.113608 31.96005-7.350811a123.685393 123.685393 0 0 1 31.96005-2.237203 50.496879 50.496879 0 0 1 30.042447 15.021223 43.465668 43.465668 0 0 0 9.907615 7.350811 42.187266 42.187266 0 0 1 14.062422 10.546817l5.752809 5.433208c7.670412 6.39201 7.350811 6.072409 4.154807 15.340824a7.350811 7.350811 0 0 1-6.39201 5.433209l-22.691636 3.515605h8.948814a100.034956 100.034956 0 0 1-23.970037 1.598003 177.697878 177.697878 0 0 1-46.661673-5.113608c0-5.113608 2.876404-4.154806 5.433208-3.835206l18.536829 2.556804a37.073658 37.073658 0 0 0 8.948814 0c2.876404 0 5.433208 0 6.39201-3.835206s0-4.794007-3.196005-6.07241a120.808989 120.808989 0 0 0-17.897628-9.588015A36.114856 36.114856 0 0 0 607.240949 288.27965c-10.227216 2.237203-21.093633 2.237203-31.96005 3.515606h-3.835206a70.63171 70.63171 0 0 0 15.660424 6.39201l15.340824 4.474407c1.917603 0 5.433208 0 4.474407 3.835206s-3.515605 0-5.433208 0A147.655431 147.655431 0 0 1 552.589263 288.27965l-5.752809-3.515605-11.186017-8.629214c-2.237203-2.237203-7.670412-6.072409-1.917603-4.474407z" fill="#F9F9F9" p-id="35742"></path><path d="M600.848939 307.13608h1.598002c0-1.917603 0 0 0 0a200.069913 200.069913 0 0 1-27.166042-9.907616l-9.907616-4.474407s-3.515605 0-3.196005-2.876404 2.556804-2.237203 4.154807-2.237204c9.268414 0 18.536829-1.598002 27.805243-2.556804a57.52809 57.52809 0 0 0 10.866417 0c18.856429-5.433208 31.96005 5.752809 47.620475 14.062422a6.072409 6.072409 0 0 1 2.876404 7.990013 8.309613 8.309613 0 0 1-7.670412 5.752809 156.923845 156.923845 0 0 1-28.444444-2.876405 10.866417 10.866417 0 0 0-7.350812 0zM297.548065 260.154806c4.154806-7.031211 9.907615-5.113608 16.299625-3.515605a313.84769 313.84769 0 0 0 60.404495 7.990012l63.9201 6.39201a474.606742 474.606742 0 0 0 54.332085 1.598003c10.227216-6.39201 13.423221 3.515605 18.536829 8.309613a5.752809 5.752809 0 0 1-4.154807 4.474407 76.70412 76.70412 0 0 1-31.96005 3.515605 680.109863 680.109863 0 0 1-74.466916-7.670412 212.214732 212.214732 0 0 0-34.516854-7.350811 359.550562 359.550562 0 0 1-63.9201-10.866417 9.907615 9.907615 0 0 1-4.474407-2.876405z" fill="#F9F9F9" p-id="35743"></path><path d="M493.143571 195.915106a17.897628 16.619226 0 1 0 35.795255 0 17.897628 16.619226 0 1 0-35.795255 0Z" fill="" p-id="35744"></path><path d="M652.94382 157.243446a51.775281 21.413233 0 1 0 103.550562 0 51.775281 21.413233 0 1 0-103.550562 0Z" fill="" p-id="35745"></path><path d="M580.394507 645.273408H607.240949c7.350811 0 7.350811 0 4.794007 7.031211v7.670412c0 2.556804 4.154806 0 6.07241 0h159.800249c6.072409 0 7.350811 1.598002 7.350812 7.350812 0 13.10362 0 13.10362-13.423221 13.10362H607.240949a7.990012 7.990012 0 0 0-8.948814 6.39201c-5.433208 15.980025-17.258427 48.898876-17.258427 49.538078-1.917603 8.629213-1.917603 8.629213 7.031211 8.629213h46.981273v-21.413233c0-7.670412 0-8.948814 9.907616-8.948814h20.774032c5.752809 0 7.031211 0 7.031211 7.031211v23.330836h95.88015c1.917603 0 6.39201 0 6.39201 4.154807v13.423221c0 3.515605 0 4.474407-4.794008 4.474407h-89.488139c-5.752809 0-7.670412 0-7.350812 7.03121v41.228465a63.9201 63.9201 0 0 1-2.556804 19.17603 39.630462 39.630462 0 0 1-21.732834 25.248439 89.80774 89.80774 0 0 1-31.96005 7.350812c-2.876404 0-4.474407 0-4.154806-3.835206s0 0 0-2.237204a33.877653 33.877653 0 0 1 0-11.186017c0-4.154806 6.71161-1.917603 10.227216-3.515606s10.546816-4.474407 11.505618-10.866417v-5.433208a31.96005 31.96005 0 0 0 0-7.990013v-49.218477c0-4.794007 0-6.072409-6.07241-6.072409h-93.003745c-6.71161 0-6.71161 0-4.154807-6.072409 9.907615-24.928839 19.815231-50.177278 29.722847-75.106118 1.917603-4.474407 0-5.433208-3.515606-5.433208h-31.96005c-4.154806 0-5.752809 0-5.752809-5.433209 0-15.021223 0-15.021223 14.701623-15.021223h37.712859c3.196005-4.474407 3.196005-10.546816 7.031211-14.701623zM484.194757 767.6804H383.520599c-4.154806 0-5.433208 0-5.113608 5.113607v41.228465a76.384519 76.384519 0 0 1-1.917603 18.856429 39.950062 39.950062 0 0 1-24.928839 28.764045 95.88015 95.88015 0 0 1-29.722846 6.07241c-3.196005 0-4.474407 0-4.154807-4.154807a47.620474 47.620474 0 0 1 0-13.10362c1.598002-4.474407 7.031211-2.237203 10.546817-3.515606a16.938826 16.938826 0 0 0 12.464419-17.258427 65.837703 65.837703 0 0 0 0-8.629213v-44.74407c0-9.588015 1.917603-8.629213-7.670412-8.629213H246.092385c-5.752809 0-7.031211-1.598002-7.031211-7.031211V700.564295c0-3.515605 0-5.433208 4.794007-5.433209h240.019975c2.237203 0 0 3.835206 0 5.752809v60.404495c1.598002 2.556804 2.237203 6.39201 0.319601 6.39201z" fill="#FEFEFE" p-id="35746"></path><path d="M380.004994 655.181024c0 5.752809 0 6.072409 6.072409 6.072409h99.076155c7.670412 0 7.670412 0 7.670412 7.670412 0 12.464419 0 12.464419-12.78402 12.46442H238.102372c-7.670412 0-7.670412 0-7.670412-7.990013s0-12.464419 12.78402-12.464419h93.323346c5.433208 0 7.031211 0 7.031211-7.031211s-1.598002-8.629213 8.309613-8.629214h22.372035c7.031211 0.3196 5.752809 3.835206 5.752809 9.907616z" fill="#FDFDFD" p-id="35747"></path><path d="M444.883895 789.093633c4.794007 0 11.825218-2.237203 16.299626 0s5.113608 10.227216 7.031211 15.980025c7.670412 18.856429 14.701623 38.032459 22.372035 56.888889 1.598002 4.154806 0 5.433208-3.515606 5.433208-15.021223 0-15.021223 0-23.011236-13.10362l-35.795256-60.084894s-2.876404-2.876404-1.917603-4.474407 3.515605 0 5.113608 0zM735.081149 789.413233h16.299625a44.74407 44.74407 0 0 1 7.031211 15.340824c7.350811 18.856429 14.701623 38.032459 22.372035 56.888889 1.598002 4.474407 0 5.113608-3.515606 5.752809a20.134831 20.134831 0 0 1-23.011235-12.464419c-11.186017-20.774032-23.970037-40.908864-36.114857-61.043696-3.196005-5.433208-3.196005-5.433208 3.196005-5.433208zM567.930087 789.413233h13.103621c4.154806 0 5.113608 0 2.876404 4.474407-6.39201 10.227216-12.464419 20.454432-18.536829 31.96005s-15.660424 24.609238-22.052434 37.712859a7.990012 7.990012 0 0 1-8.309613 4.474407c-4.474407 0-11.186017 1.917603-13.742822 0a31.96005 31.96005 0 0 1 3.835206-12.78402c7.670412-19.815231 15.660424-39.630462 23.330837-59.765293a6.71161 6.71161 0 0 1 7.990012-5.433209c2.876404-0.3196 7.350811-0.639201 11.505618-0.639201zM231.071161 866.117353c9.268414-23.970037 18.856429-47.940075 28.124844-71.910112a7.031211 7.031211 0 0 1 7.990012-5.433209h26.207241c4.154806 0 4.474407 0 2.556804 4.474407L253.443196 863.560549a4.794007 4.794007 0 0 1-4.154806 3.196005h-12.46442c-3.835206 1.917603-7.031211 2.237203-5.752809-0.639201z" fill="#FEFEFE" p-id="35748"></path><path d="M279.330836 715.585518h163.955057a4.474407 4.474407 0 0 1 4.474407 4.474407v23.011236a4.474407 4.474407 0 0 1-4.474407 4.474407H279.011236a4.474407 4.474407 0 0 1-4.474407-4.474407v-22.691635a4.794007 4.794007 0 0 1 4.794007-4.794008z" fill="#E31D1A" p-id="35749"></path><path d="M534.052434 868.354557c-4.474407 0-11.186017 1.917603-13.742821 0s2.237203-8.629213 3.835206-12.78402" fill="#FEFEFE" p-id="35750"></path></svg>