<?xml version="1.0" standalone="no"?><!DOCTYPE svg PUBLIC "-//W3C//DTD SVG 1.1//EN" "http://www.w3.org/Graphics/SVG/1.1/DTD/svg11.dtd"><svg t="1639194471936" class="icon" viewBox="0 0 1024 1024" version="1.1" xmlns="http://www.w3.org/2000/svg" p-id="904" xmlns:xlink="http://www.w3.org/1999/xlink" width="200" height="200"><defs><style type="text/css"></style></defs><path d="M512 1024c-62.769351 0-123.73958-12.293997-181.111567-36.582138-55.372962-23.38858-105.148658-56.972182-147.927769-99.651342-42.679161-42.679161-76.262762-92.454856-99.651342-147.927769C59.021181 682.466764 46.727184 621.496535 46.727184 558.727184c0-64.868326 13.093607-127.637677 38.980966-186.608882 24.987799-56.972182 60.570425-107.647438 105.748365-150.626452 15.992191-15.192582 41.279844-14.592875 56.572377 1.399316 15.192582 15.992191 14.592875 41.279844-1.399317 56.572377-77.362225 73.364178-119.941435 172.615715-119.941434 279.16369 0 212.496242 172.815617 385.311859 385.311859 385.311859s385.311859-172.815617 385.311859-385.311859c0-98.65183-37.281796-192.506003-104.848804-264.270962-4.597755-4.897609-9.295461-9.695266-14.19307-14.293021-1.599219-1.499268-3.098487-2.998536-4.697706-4.397852-16.192094-14.992679-17.191606-40.280332-2.198926-56.472426 14.992679-16.192094 40.280332-17.191606 56.472425-2.198926l5.697219 5.397364c5.797169 5.597267 11.594339 11.394436 17.091654 17.191606 81.660127 86.657687 126.638165 200.002343 126.638165 319.044217 0 62.769351-12.293997 123.73958-36.582138 181.111566-23.38858 55.372962-56.972182 105.148658-99.651342 147.92777-42.679161 42.679161-92.454856 76.262762-147.927769 99.651342-57.371986 24.288141-118.342216 36.682089-181.111567 36.682089z" p-id="905"></path><path d="M499.106296 595.509224c-22.089214 0-39.980478-17.891264-39.980479-39.980478V63.56896c0-22.089214 17.891264-39.980478 39.980479-39.980478s39.980478 17.891264 39.980478 39.980478v491.959786c0 22.089214-17.991215 39.980478-39.980478 39.980478z" p-id="906"></path></svg>