<?xml version="1.0" standalone="no"?><!DOCTYPE svg PUBLIC "-//W3C//DTD SVG 1.1//EN" "http://www.w3.org/Graphics/SVG/1.1/DTD/svg11.dtd"><svg t="1639194502593" class="icon" viewBox="0 0 1024 1024" version="1.1" xmlns="http://www.w3.org/2000/svg" p-id="1043" xmlns:xlink="http://www.w3.org/1999/xlink" width="200" height="200"><defs><style type="text/css"></style></defs><path d="M919.2 280.6H87.8c-22.1 0-40-17.9-40-40s17.9-40 40-40h831.3c22.1 0 40 17.9 40 40s-17.8 40-39.9 40zM809.2 996.1H177.7c-22.1 0-40-17.9-40-40s17.9-40 40-40h631.5c22.1 0 40 17.9 40 40s-17.9 40-40 40z" p-id="1044"></path><path d="M177.7 996.1c-22.1 0-40-17.9-40-40V255.6c0-22.1 17.9-40 40-40s40 17.9 40 40v700.5c0 22.1-17.9 40-40 40zM809.2 996.1c-22.1 0-40-17.9-40-40V255.6c0-22.1 17.9-40 40-40s40 17.9 40 40v700.5c0 22.1-17.9 40-40 40zM347.2 855c-22.1 0-40-17.9-40-40V416c0-22.1 17.9-40 40-40s40 17.9 40 40v399c0 22.1-17.9 40-40 40zM494.4 855c-22.1 0-40-17.9-40-40V512.1c0-22.1 17.9-40 40-40s40 17.9 40 40V815c0 22.1-17.9 40-40 40zM639.7 855c-22.1 0-40-17.9-40-40V630.6c0-22.1 17.9-40 40-40s40 17.9 40 40V815c0 22.1-17.9 40-40 40zM729.2 201.6h-80v-80H357.8v80h-80v-110c0-27.6 22-50 49.1-50h353.2c27.1 0 49.1 22.4 49.1 50v110z" p-id="1045"></path></svg>