<?xml version="1.0" standalone="no"?><!DOCTYPE svg PUBLIC "-//W3C//DTD SVG 1.1//EN" "http://www.w3.org/Graphics/SVG/1.1/DTD/svg11.dtd"><svg t="1640852343944" class="icon" viewBox="0 0 1024 1024" version="1.1" xmlns="http://www.w3.org/2000/svg" p-id="36602" xmlns:xlink="http://www.w3.org/1999/xlink" width="200" height="200"><defs><style type="text/css"></style></defs><path d="M854 1024H170C76.1 1024 0 947.9 0 854V170C0 76.1 76.1 0 170 0h684c93.9 0 170 76.1 170 170v684c0 93.9-76.1 170-170 170z" fill="#E1017E" p-id="36603"></path><path d="M400.6 381h215.5v86.8c-0.2 13.9-11.7 25-25.6 24.8H400.6V381z m178.8 92.8c5.3 0 7.9-2.3 7.9-7.5v-66.6H429.2v74h149.3m-66.1 35.1h124.4v91.9c-2 20-19.4 34.9-39.5 33.9h-83.2l-1.7-125.8z m80 108.6c4.9 0 12.2-5.1 12.2-10v-81.3h-61.7v91.3h50.3M373.1 508.8h124.6v91.9c-2.1 20.8-20.6 35.9-41.4 33.9h-83.2V508.8z m80 108.6c4.9 0 12.2-5.1 12.2-10v-81.3h-62.5v91.3h50.3M236.6 382.7h28.2v249.4h-28.2V382.3m-83.4 52.3l-21.3 19.6v125.2c-1.5 14.7-14.1 25.7-28.8 25.4H42.7V393.6h89v21.3c13.1-9.6 25-20.7 35.6-33.1h41.4l-22.8 23.5v236.8h-32.6l-0.1-207.5z m-61 155.7c1.9 0 11.9-1.9 11.9-9.2V411.7H70v178.6h21.3" fill="#FFFFFF" p-id="36604"></path><path d="M180.1 426.7H320V407H180.1v19.7z m0 68.9H320V476H180.1v19.6z m0 68.9H320v-19.6H180.1v19.6z m0 70.4H320v-19.6H180.1v19.6z m625-252.4H849c43.9 40.1 132.3 117.8 132.3 117.8h-40.1c-28.2-23.9-62.9-52.5-106.7-94.9-1.6-1.5-3.6-2.5-5.8-2.8-2.6 0.6-5 1.9-6.8 3.8-44.6 42.7-64 59.3-106.7 94.3H674c72.3-64 113.1-102.4 131-118M690.6 544.6H966v-22.4H690.6v22.4z" fill="#FFFFFF" p-id="36605"></path><path d="M952.5 487.3H699.7l36.1-22.4h190.3l26.4 22.4m-205.8 53.3l-37.1 93h214.8s29.4-5.3 23.3-27.1c-4.1-13.7-9-27.1-14.5-40.3h-32c5 12.6 9.1 25.6 12.4 38.8-0.2 6.1-5.2 10.9-11.3 10.9H752.9l26-74.9h-32.4" fill="#FFFFFF" p-id="36606"></path></svg>