<?xml version="1.0" standalone="no"?><!DOCTYPE svg PUBLIC "-//W3C//DTD SVG 1.1//EN" "http://www.w3.org/Graphics/SVG/1.1/DTD/svg11.dtd"><svg t="1658716923356" class="icon" viewBox="0 0 1024 1024" version="1.1" xmlns="http://www.w3.org/2000/svg" p-id="5698" xmlns:xlink="http://www.w3.org/1999/xlink" width="200" height="200"><defs><style type="text/css">@font-face { font-family: feedback-iconfont; src: url("//at.alicdn.com/t/font_1031158_u69w8yhxdu.woff2?t=1630033759944") format("woff2"), url("//at.alicdn.com/t/font_1031158_u69w8yhxdu.woff?t=1630033759944") format("woff"), url("//at.alicdn.com/t/font_1031158_u69w8yhxdu.ttf?t=1630033759944") format("truetype"); }
</style></defs><path d="M896 958.5H128c-35.3 0-64-28.7-64-64 0-2.6 0.3-5.2 1-7.8l63.2-252.3c2.4-33.1 30.1-59.4 63.8-59.4h64c17.7 0 32 14.3 32 32s-14.3 32-32 32h-64c0 2.6-0.3 5.2-1 7.8l-62 247.7h766l-62.1-247.7c-0.6-2.5-1-5.2-1-7.8h-63.8c-17.7 0-32-14.3-32-32s14.3-32 32-32H832c33.7 0 61.5 26.2 63.8 59.4L959 886.8c0.6 2.5 1 5.2 1 7.8 0 35.2-28.7 63.9-64 63.9zM513.1 415.1c-52.9 0-96-43.1-96-96s43.1-96 96-96 96 43.1 96 96-43.1 96-96 96z m0-128c-17.7 0-32 14.4-32 32s14.4 32 32 32 32-14.4 32-32-14.3-32-32-32z" p-id="5699"></path><path d="M513.6 800.3c-5.5 0-11.1-1.4-16.1-4.3-55.1-32-118.8-102.5-170.4-188.4-25.4-42.3-46.6-86.6-61.3-128-16.5-46.7-24.9-89.4-24.9-127 0-77.6 26.7-149.6 75-202.6C366 95.1 435.8 64.9 512.5 64.9c39.1 0 75.9 7.7 109.5 22.9 32.3 14.6 60.7 35.7 84.5 62.7 46.2 52.5 71.7 124.2 71.7 202.1 0 153-130 359.5-246.1 441.9-5.5 3.9-12 5.8-18.5 5.8z m-1-671.4c-120.3 0-207.7 94.1-207.7 223.7 0 59.6 28.1 140.5 77.1 222.1 39.9 66.5 88.3 123.6 130.2 154.5 45-37 92.7-95.4 130.6-160.4 45.4-77.9 71.4-156.7 71.4-216.2 0-131.7-82.9-223.7-201.6-223.7z" p-id="5700"></path></svg>