<?xml version="1.0" standalone="no"?><!DOCTYPE svg PUBLIC "-//W3C//DTD SVG 1.1//EN" "http://www.w3.org/Graphics/SVG/1.1/DTD/svg11.dtd"><svg t="1639194611149" class="icon" viewBox="0 0 1024 1024" version="1.1" xmlns="http://www.w3.org/2000/svg" p-id="969" xmlns:xlink="http://www.w3.org/1999/xlink" width="200" height="200"><defs><style type="text/css"></style></defs><path d="M0 0h1024v1024H0z" fill="#FFFFFF" fill-opacity="0" p-id="970"></path><path d="M218.368 261.849L299.52 343h425.616l80.555-80.553 0.742 0.754c24.249 25.048 24.001 65.012-0.742 89.756L771 387.646V524h130c0 35.346-28.654 64-64 64h-66v62c0 22.745-2.92 44.809-8.408 65.835l88.353 88.356c-24.993 24.993-65.516 24.993-90.51 0l-24.208-24.21c-39.73 68.697-109.988 117.527-192.224 127.944L544 417h-64l-0.002 491.17c-82.396-9.79-152.974-58.112-193.206-126.442l-23.169 23.17c-24.993 24.993-65.516 24.993-90.51 0l86.875-86.88c-5.504-20.357-8.596-41.705-8.953-63.718L251 650v-62h-66c-35.346 0-64-28.654-64-64h130V384.99l-32.632-32.631c-24.743-24.744-24.99-64.708-0.742-89.756l0.742-0.754zM512 113c93.888 0 170 76.112 170 170H342c0-93.888 76.112-170 170-170z" fill="#666666" p-id="971"></path></svg>