<?xml version="1.0" standalone="no"?><!DOCTYPE svg PUBLIC "-//W3C//DTD SVG 1.1//EN" "http://www.w3.org/Graphics/SVG/1.1/DTD/svg11.dtd"><svg t="1640850967477" class="icon" viewBox="0 0 1024 1024" version="1.1" xmlns="http://www.w3.org/2000/svg" p-id="18045" xmlns:xlink="http://www.w3.org/1999/xlink" width="200" height="200"><defs><style type="text/css"></style></defs><path d="M0 0m219.428571 0l585.142858 0q219.428571 0 219.428571 219.428571l0 585.142858q0 219.428571-219.428571 219.428571l-585.142858 0q-219.428571 0-219.428571-219.428571l0-585.142858q0-219.428571 219.428571-219.428571Z" fill="#FF3000" p-id="18046"></path><path d="M835.291429 649.289143v103.570286c0 71.972571-58.88 130.413714-131.657143 130.413714H510.025143a131.584 131.584 0 0 1-125.074286-89.819429l-115.419428 57.270857a64.146286 64.146286 0 0 1-85.723429-28.16 62.902857 62.902857 0 0 1-6.802286-28.379428v-185.782857a63.634286 63.634286 0 0 1 63.926857-63.268572c10.020571 0 19.894857 2.340571 28.891429 6.802286l114.834286 57.636571a131.657143 131.657143 0 0 1 125.366857-90.697142H703.634286c72.777143 0 131.657143 58.368 131.657143 130.413714zM512 585.874286a65.536 65.536 0 0 0-65.828571 64.146285v100.864c0 35.620571 28.891429 64.585143 64.731428 65.097143l190.902857 0.146286a65.609143 65.609143 0 0 0 65.828572-64.219429V651.190857a65.462857 65.462857 0 0 0-64.804572-65.170286H512z m-267.190857 57.417143v116.809142a17.554286 17.554286 0 0 0 25.088 15.506286l0.292571-0.146286 108.251429-54.710857v-38.692571l-108.397714-53.906286a17.408 17.408 0 0 0-25.234286 15.140572z m178.102857-508.123429c66.779429 0 125.001143 36.425143 155.501714 90.258286a153.088 153.088 0 0 1 103.936-40.374857c84.48 0 152.941714 67.803429 152.941715 151.478857a152.210286 152.210286 0 0 1-152.868572 151.552c-50.834286 0-95.817143-24.576-123.684571-62.317715a178.322286 178.322286 0 0 1-135.826286 62.317715A177.298286 177.298286 0 0 1 244.809143 311.588571c0-97.426286 79.725714-176.420571 178.102857-176.420571z m0 70.948571a106.057143 106.057143 0 0 0-106.496 105.545143c0 58.221714 47.689143 105.472 106.496 105.472a106.057143 106.057143 0 0 0 106.496-105.472 106.057143 106.057143 0 0 0-106.496-105.545143z m259.437714 49.883429c-44.909714 0-81.334857 36.132571-81.334857 80.530286 0 44.544 36.425143 80.603429 81.334857 80.603428 44.909714 0 81.334857-36.059429 81.334857-80.603428 0-44.397714-36.425143-80.530286-81.334857-80.530286z" fill="#FFFFFF" p-id="18047"></path></svg>