<?xml version="1.0" standalone="no"?><!DOCTYPE svg PUBLIC "-//W3C//DTD SVG 1.1//EN" "http://www.w3.org/Graphics/SVG/1.1/DTD/svg11.dtd"><svg t="1630047567805" class="icon" viewBox="0 0 1024 1024" version="1.1" xmlns="http://www.w3.org/2000/svg" p-id="3070" xmlns:xlink="http://www.w3.org/1999/xlink" width="200" height="200"><defs><style type="text/css"></style></defs><path d="M832.969143 645.833143H251.885714c-46.756571 0-84.662857-39.186286-84.662857-87.533714V163.785143c0-48.347429 37.906286-87.533714 84.662857-87.533714h540.324572c46.756571 0 84.662857 39.186286 84.662857 87.533714v436.681143c-0.018286 25.069714-19.657143 45.366857-43.904 45.366857z" fill="#C2E5FF" p-id="3071"></path><path d="M921.362286 814.555429V185.984c0-10.624-1.499429-27.849143-3.328-38.308571l-0.018286-0.109715c-13.293714-37.412571-32.073143-71.021714-66.340571-94.738285-15.213714-10.514286-32.237714-16.530286-49.097143-22.985143a87.723886 87.723886 0 0 0-31.469715-5.869715H293.632c-13.001143 0-25.947429 1.627429-38.509714 4.937143-0.749714 0.201143-1.298286 0.347429-1.572572 0.457143-70.180571 25.179429-116.169143 92.763429-116.169143 167.332572v621.988571c0 35.382857 9.654857 70.253714 28.781715 100.004571 5.778286 8.978286 12.416 17.499429 20.443428 25.270858 7.936 7.698286 16.621714 13.952 25.746286 19.382857 29.184 17.444571 62.793143 26.130286 96.804571 26.130285h478.884572c1.700571-0.457143 3.382857-0.932571 5.046857-1.426285 76.489143-22.473143 128.274286-93.750857 128.274286-173.494857zM192.694857 181.156571c0.329143-63.213714 37.851429-100.498286 101.156572-100.736 157.385143-0.585143 314.752-0.585143 472.137142 0 63.195429 0.237714 101.065143 37.650286 101.394286 100.553143 0.731429 139.648-0.091429 279.314286 0.676572 418.962286 0.091429 19.163429-6.144 23.625143-24.100572 23.478857-104.594286-0.768-209.206857-0.365714-313.819428-0.365714s-209.206857-0.347429-313.819429 0.347428c-17.682286 0.109714-24.411429-3.858286-24.283429-23.296 0.786286-139.629714-0.073143-279.296 0.658286-418.944z m675.309714 511.798858c-1.627429 43.264 0.018286 86.656-0.603428 129.956571-0.950857 65.92-37.485714 105.490286-99.949714 105.764571-158.226286 0.713143-316.470857 0.713143-474.697143 0-62.701714-0.292571-99.108571-39.570286-100.077715-105.618285-0.64-43.318857 0.969143-86.692571-0.603428-129.956572-0.768-21.467429 6.473143-25.965714 25.654857-25.801143 104.539429 0.932571 209.078857 0.438857 313.636571 0.438858 103.606857 0 207.213714 0.475429 310.802286-0.420572 18.980571-0.146286 26.660571 3.931429 25.837714 25.636572z" fill="#4167F7" p-id="3072"></path><path d="M528.347429 744.100571c-35.090286 0.475429-61.659429 28.068571-61.129143 63.451429 0.530286 35.236571 28.672 62.683429 63.158857 61.586286 35.382857-1.133714 61.604571-28.416 61.202286-63.707429-0.420571-35.273143-27.794286-61.805714-63.232-61.330286z" fill="#4167F7" p-id="3073"></path></svg>