<?xml version="1.0" standalone="no"?><!DOCTYPE svg PUBLIC "-//W3C//DTD SVG 1.1//EN" "http://www.w3.org/Graphics/SVG/1.1/DTD/svg11.dtd"><svg t="1639194510142" class="icon" viewBox="0 0 1024 1024" version="1.1" xmlns="http://www.w3.org/2000/svg" p-id="1180" xmlns:xlink="http://www.w3.org/1999/xlink" width="200" height="200"><defs><style type="text/css"></style></defs><path d="M510.4 1009.5c-70.1 0-137.5-13.7-200.3-40.7-60.9-26.2-114.9-63.8-160.4-111.6-45.6-48-80.5-104-103.7-166.4-24-64.5-34.3-133.2-30.8-204.1 6.2-123.2 57.7-239.1 145.1-326.5s203.3-138.9 326.5-145c8.9-0.4 18-0.7 26.8-0.7 70.1 0 137.5 13.7 200.3 40.7 60.9 26.2 114.9 63.8 160.4 111.6 45.6 48 80.5 104 103.7 166.4 24 64.5 34.3 133.2 30.8 204.1-6.2 123.2-57.7 239.1-145.1 326.5s-203.4 138.9-326.5 145.1c-8.9 0.4-17.9 0.6-26.8 0.6z m3.2-915c-7.6 0-15.2 0.2-22.8 0.6C276 105.8 105.8 276 95.1 490.8c-6 118.2 34 228.7 112.5 311.3 78.2 82.2 185.7 127.5 302.8 127.5 7.6 0 15.2-0.2 22.8-0.6 214.8-10.7 385-180.9 395.7-395.7 5.9-118.2-34.1-228.8-112.6-311.3-78.1-82.3-185.6-127.5-302.7-127.5z" p-id="1181"></path><path d="M413.9 749.8c-10.6 0-20.8-4.2-28.3-11.7l-171-171c-15.6-15.6-15.6-40.9 0-56.6 15.6-15.6 40.9-15.6 56.6 0L414 653.3l339-339c15.6-15.6 40.9-15.6 56.6 0s15.6 40.9 0 56.6L442.1 738c-7.5 7.5-17.6 11.8-28.2 11.8z" p-id="1182"></path></svg>