<?xml version="1.0" standalone="no"?><!DOCTYPE svg PUBLIC "-//W3C//DTD SVG 1.1//EN" "http://www.w3.org/Graphics/SVG/1.1/DTD/svg11.dtd"><svg t="1658716785792" class="icon" viewBox="0 0 1024 1024" version="1.1" xmlns="http://www.w3.org/2000/svg" p-id="3574" xmlns:xlink="http://www.w3.org/1999/xlink" width="200" height="200"><defs><style type="text/css">@font-face { font-family: feedback-iconfont; src: url("//at.alicdn.com/t/font_1031158_u69w8yhxdu.woff2?t=1630033759944") format("woff2"), url("//at.alicdn.com/t/font_1031158_u69w8yhxdu.woff?t=1630033759944") format("woff"), url("//at.alicdn.com/t/font_1031158_u69w8yhxdu.ttf?t=1630033759944") format("truetype"); }
</style></defs><path d="M831.090047 118.900474h-60.663507V97.061611c0-53.383886-43.677725-97.061611-97.061611-97.061611s-97.061611 43.677725-97.061611 97.061611v24.265403h-145.592418V97.061611c0-53.383886-43.677725-97.061611-97.061611-97.061611s-97.061611 43.677725-97.061611 97.061611v24.265403h-48.530806C98.274882 118.900474 20.625592 196.549763 20.625592 291.184834v558.104266c0 94.635071 77.649289 172.28436 172.284361 172.28436h638.180094c94.635071 0 172.28436-77.649289 172.284361-172.28436V291.184834c0-94.635071-77.649289-172.28436-172.284361-172.28436z m-638.180094 72.796208h121.327014V97.061611c0-12.132701 9.706161-21.838863 21.838862-21.838862s24.265403 7.279621 24.265403 21.838862v97.061612h291.184834V97.061611c0-14.559242 12.132701-24.265403 24.265403-24.265402s21.838863 9.706161 21.838863 21.838862v97.061611h133.459715c55.810427 0 99.488152 43.677725 99.488152 99.488152v77.649289H93.421801V291.184834c0-53.383886 43.677725-99.488152 99.488152-99.488152z m638.180094 757.080569H192.909953C137.099526 948.777251 93.421801 905.099526 93.421801 849.2891V441.630332h837.156398V849.2891c0 55.810427-43.677725 99.488152-99.488152 99.488151z" fill="#221714" p-id="3575"></path><path d="M658.805687 317.876777h201.402844c19.412322 0 36.398104-16.985782 36.398104-36.398104s-16.985782-36.398104-36.398104-36.398104h-201.402844c-19.412322 0-36.398104 16.985782-36.398104 36.398104s14.559242 36.398104 36.398104 36.398104zM823.810427 502.293839h-606.635072c-19.412322 0-36.398104 16.985782-36.398104 36.398104s16.985782 36.398104 36.398104 36.398104h606.635072c19.412322 0 36.398104-16.985782 36.398104-36.398104s-14.559242-36.398104-36.398104-36.398104zM823.810427 645.459716h-606.635072c-19.412322 0-36.398104 16.985782-36.398104 36.398104s16.985782 36.398104 36.398104 36.398104h606.635072c19.412322 0 36.398104-16.985782 36.398104-36.398104s-14.559242-36.398104-36.398104-36.398104zM552.037915 788.625592H217.175355c-19.412322 0-36.398104 16.985782-36.398104 36.398105s16.985782 36.398104 36.398104 36.398104h332.436019c19.412322 0 36.398104-16.985782 36.398105-36.398104s-14.559242-36.398104-33.971564-36.398105z" fill="#221714" p-id="3576"></path></svg>