<?xml version="1.0" standalone="no"?><!DOCTYPE svg PUBLIC "-//W3C//DTD SVG 1.1//EN" "http://www.w3.org/Graphics/SVG/1.1/DTD/svg11.dtd"><svg t="1639211769968" class="icon" viewBox="0 0 1024 1024" version="1.1" xmlns="http://www.w3.org/2000/svg" p-id="2765" xmlns:xlink="http://www.w3.org/1999/xlink" width="200" height="200"><defs><style type="text/css"></style></defs><path d="M369.813226 20.182193l336.853879 413.60985 8.809996-391.509858A508.671816 508.671816 0 0 0 511.980175 0.0002c-49.343982 0-97.023965 7.146997-142.165949 20.181993z" fill="#E67258" p-id="2766"></path><path d="M63.723337 264.768104l530.644808 54.249981L323.776243 35.948187a508.329816 508.329816 0 0 0-173.780937 114.004959 510.079816 510.079816 0 0 0-86.271969 114.815958z" fill="#E7AD5A" p-id="2767"></path><path d="M20.182353 654.143964L433.770203 317.248085 42.283345 308.480089A508.052816 508.052816 0 0 0 0.00036 512.000015c0 49.343982 7.125997 96.980965 20.181993 142.143949z" fill="#E7D55C" p-id="2768"></path><path d="M264.747264 960.255853l54.249981-530.666808L35.990347 700.244947a507.391817 507.391817 0 0 0 114.004959 173.781937 509.844816 509.844816 0 0 0 114.751958 86.228969z" fill="#B2D361" p-id="2769"></path><path d="M654.080124 1003.775837l-336.809879-413.60985-8.831996 391.550858A509.012816 509.012816 0 0 0 511.978175 1023.99983c49.301982 0 96.981965-7.146997 142.101949-20.223993z" fill="#78BE59" p-id="2770"></path><path d="M960.192013 759.209926l-530.644808-54.228981 270.655902 283.049898a508.629816 508.629816 0 0 0 173.780937-114.003959 507.540817 507.540817 0 0 0 86.207969-114.815958z" fill="#71C6D5" p-id="2771"></path><path d="M1003.754997 369.856066L590.123147 706.709945l391.551858 8.809996a509.311816 509.311816 0 0 0 42.281985-203.539926c0-49.322982-7.167997-97.002965-20.201993-142.122949z" fill="#5E93CE" p-id="2772"></path><path d="M759.232086 63.744177L704.960105 594.389985l283.049898-270.612902A510.655815 510.655815 0 0 0 759.233086 63.744177z" fill="#5758A4" p-id="2773"></path></svg>