<?xml version="1.0" standalone="no"?><!DOCTYPE svg PUBLIC "-//W3C//DTD SVG 1.1//EN" "http://www.w3.org/Graphics/SVG/1.1/DTD/svg11.dtd"><svg t="1640852305661" class="icon" viewBox="0 0 1024 1024" version="1.1" xmlns="http://www.w3.org/2000/svg" p-id="34673" xmlns:xlink="http://www.w3.org/1999/xlink" width="200" height="200"><defs><style type="text/css"></style></defs><path d="M1023.997085 862.209952a162.123442 162.123442 0 0 1-161.787133 161.787133H161.790048A160.823047 160.823047 0 0 1 0.002915 862.209952V161.790048A160.823047 160.823047 0 0 1 161.790048 0.002915h702.46018a160.397055 160.397055 0 0 1 159.746857 161.787133z" fill="#FF6B06" p-id="34674"></path><path d="M198.649533 294.901218a67.889612 67.889612 0 1 0 67.575723-61.432475 64.728306 64.728306 0 0 0-67.575723 61.432475z m10.246219 83.965191l-43.002732 65.535447 77.821942 49.145981a56.701727 56.701727 0 0 1 26.613266 77.821942c-24.662673 47.083284-137.214143 151.540913-137.214143 151.540914l102.394933 63.495172c71.745957-153.60361 65.535448-133.111171 83.965191-188.333137 18.429743-57.351924 22.420612-100.354657-8.183524-131.070895a599.77378 599.77378 0 0 0-102.394933-88.135424z" fill="#FFFFFF" p-id="34675"></path><path d="M876.536723 362.476942s-22.420612-174.073628-401.328947-65.535448c16.389467-28.675962 24.662673-47.083284 24.662673-47.083284l-94.166568-26.613266s-38.899761 124.927648-106.497905 182.279572c0 0 65.535448 38.922182 65.535447 36.859485 18.429743-18.429743 34.81921-38.922182 51.208677-57.351924 14.326771-6.143248 30.716238-12.286495 43.002733-18.429743a598.092234 598.092234 0 0 1-73.718971 108.538181l40.962458 34.819209 57.351924-57.351924h34.81921v59.3922h-133.111171v47.083284h133.111171v112.641153h-4.304758a66.432272 66.432272 0 0 1-47.083284-16.389467c-10.246219-16.389467-2.040276-49.145981-2.040276-67.575724h-96.251685l-4.102972 2.040276s-32.756513 149.500638 96.251685 145.397666c120.824676 4.102972 190.463095-34.81921 225.282305-59.3922l14.326771 49.14598 75.781667-30.716237-51.208677-124.927648-61.432475 18.429743 12.286495 43.002733a162.571854 162.571854 0 0 1-53.248953 26.613266v-98.291961h129.097882v-47.083285h-129.142723v-57.351924h129.142723v-47.083284H520.183523a202.996217 202.996217 0 0 0 32.756514-51.208677l-40.962458-10.246219c172.033352-61.432476 268.285038-51.208677 266.244763 49.14598v266.267183s10.246219 92.148713-94.166569 83.96519l-57.351924-12.286495-12.286495 53.248952s243.712048 69.638419 264.182065-118.829241a1038.836615 1038.836615 0 0 0-2.062696-305.122102z" fill="#FFFFFF" p-id="34676"></path></svg>