<?xml version="1.0" standalone="no"?><!DOCTYPE svg PUBLIC "-//W3C//DTD SVG 1.1//EN" "http://www.w3.org/Graphics/SVG/1.1/DTD/svg11.dtd"><svg t="1640853178391" class="icon" viewBox="0 0 1024 1024" version="1.1" xmlns="http://www.w3.org/2000/svg" p-id="11306" xmlns:xlink="http://www.w3.org/1999/xlink" width="200" height="200"><defs><style type="text/css"></style></defs><path d="M191.474035 988.689655 226.78438 953.37931 70.62069 953.37931 105.931034 988.689655 105.931034 465.541297 35.310345 465.541297 35.310345 567.047698C35.310345 586.549071 51.119334 602.358042 70.62069 602.358042L226.78438 602.358042 191.474035 567.047698 191.474035 988.689655ZM226.78438 531.737353 70.62069 531.737353 105.931034 567.047698 105.931034 465.541297C105.931034 418.460849 35.310345 418.460849 35.310345 465.541297L35.310345 988.689655C35.310345 1008.191011 51.119334 1024 70.62069 1024L226.78438 1024C246.285736 1024 262.094724 1008.191011 262.094724 988.689655L262.094724 567.047698C262.094724 547.546342 246.285736 531.737353 226.78438 531.737353ZM788.974486 953.37931 824.284831 988.689655 824.284831 567.047698 788.974486 602.358042 945.138176 602.358042C964.639532 602.358042 980.448521 586.549071 980.448521 567.047698L980.448521 465.541297 909.827831 465.541297 909.827831 988.689655 945.138176 953.37931 788.974486 953.37931ZM980.448521 988.689655 980.448521 465.541297C980.448521 418.460849 909.827831 418.460849 909.827831 465.541297L909.827831 567.047698 945.138176 531.737353 788.974486 531.737353C769.473112 531.737353 753.664141 547.546342 753.664141 567.047698L753.664141 988.689655C753.664141 1008.191011 769.473112 1024 788.974486 1024L945.138176 1024C964.639532 1024 980.448521 1008.191011 980.448521 988.689655ZM35.311175 473.349491C35.311175 520.277698 105.627118 520.50545 105.931123 473.578231 107.368783 251.656051 287.28606 72.182325 508.660665 72.182325 730.219167 72.182325 909.827831 251.790989 909.827831 473.349491 909.827831 520.278246 980.144852 520.505185 980.447779 473.577419 982.134519 212.273876 770.383378 0 508.660665 0 247.236961 0 35.311175 211.925786 35.311175 473.349491Z" p-id="11307"></path></svg>