<?xml version="1.0" standalone="no"?><!DOCTYPE svg PUBLIC "-//W3C//DTD SVG 1.1//EN" "http://www.w3.org/Graphics/SVG/1.1/DTD/svg11.dtd"><svg t="1682497967843" class="icon" viewBox="0 0 1024 1024" version="1.1" xmlns="http://www.w3.org/2000/svg" p-id="4078" xmlns:xlink="http://www.w3.org/1999/xlink" width="200" height="200"><path d="M343.6 597.3h198.3v49.6H343.6zM343.6 448.6H641v49.6H343.6zM343.6 299.9h347v49.6h-347z" fill="#00AA88" p-id="4079"></path><path d="M854.2 151.2c-29.7-34.7-74.4-54.5-123.9-54.5H304c-94.2 0-168.5 74.4-168.5 168.5v500.7c0 44.6 14.9 84.3 44.6 119 29.7 29.7 74.4 44.6 119 44.6h426.3c44.6 0 84.3-14.9 119-44.6 29.7-29.7 44.6-74.4 44.6-119V270.1c4.9-44.6-10-89.2-34.8-118.9z m-14.9 114v500.7c0 29.7-14.9 64.4-34.7 79.3-19.8 19.8-49.6 34.7-79.3 34.7H299c-29.7 0-64.4-14.9-79.3-34.7-19.8-19.8-34.7-49.6-34.7-79.3V265.2c0-64.4 54.5-119 119-119h426.3c34.7 0 64.4 14.9 84.3 34.7 19.8 24.8 29.7 49.6 24.7 84.3z" fill="#00AA88" p-id="4080"></path></svg>