<?xml version="1.0" standalone="no"?><!DOCTYPE svg PUBLIC "-//W3C//DTD SVG 1.1//EN" "http://www.w3.org/Graphics/SVG/1.1/DTD/svg11.dtd"><svg t="1640851470839" class="icon" viewBox="0 0 1024 1024" version="1.1" xmlns="http://www.w3.org/2000/svg" p-id="1343" xmlns:xlink="http://www.w3.org/1999/xlink" width="200" height="200"><defs><style type="text/css"></style></defs><path d="M828.288 257.632h-39.744l-72.384-125.376a126.88 126.88 0 0 0-172.8-46.304L245.968 257.68H195.712A126.816 126.816 0 0 0 69.2 384.144v442.816a126.88 126.88 0 0 0 126.512 126.512h632.576a126.88 126.88 0 0 0 126.512-126.512V384.144a126.88 126.88 0 0 0-126.512-126.512m-253.28-116.896a63.44 63.44 0 0 1 86.4 23.152l54.128 93.744H372.48zM891.6 700.416H670.144a94.88 94.88 0 0 1 0-189.776H891.6zM670.144 447.408a158.144 158.144 0 0 0 0 316.288H891.6v63.264a63.44 63.44 0 0 1-63.264 63.264H195.712a63.44 63.44 0 0 1-63.264-63.264V384.144a63.44 63.44 0 0 1 63.264-63.264h632.576A63.44 63.44 0 0 1 891.6 384.144v63.264z" p-id="1344"></path><path d="M638.528 605.536a31.632 31.632 0 1 0 9.264-22.4 31.632 31.632 0 0 0-9.264 22.4" p-id="1345"></path></svg>