<?xml version="1.0" standalone="no"?><!DOCTYPE svg PUBLIC "-//W3C//DTD SVG 1.1//EN" "http://www.w3.org/Graphics/SVG/1.1/DTD/svg11.dtd"><svg t="1639194529807" class="icon" viewBox="0 0 1024 1024" version="1.1" xmlns="http://www.w3.org/2000/svg" p-id="1319" xmlns:xlink="http://www.w3.org/1999/xlink" width="200" height="200"><defs><style type="text/css"></style></defs><path d="M632.8 228.3H105.2c-22.1 0-40-17.9-40-40s17.9-40 40-40h527.6c22.1 0 40 17.9 40 40s-17.9 40-40 40zM632.8 781H105.2c-22.1 0-40-17.9-40-40s17.9-40 40-40h527.6c22.1 0 40 17.9 40 40s-17.9 40-40 40zM934.6 511.1H142.2c-22.1 0-40-17.9-40-40s17.9-40 40-40h792.5c22.1 0 40 17.9 40 40s-18 40-40.1 40z" p-id="1320"></path><path d="M105.2 781c-22.1 0-40-17.9-40-40V187.6c0-22.1 17.9-40 40-40s40 17.9 40 40V741c0 22.1-17.9 40-40 40zM795.8 692.3c-10.2 0-20.5-3.9-28.3-11.7-15.6-15.6-15.6-40.9 0-56.6l152.9-152.9-152.9-153c-15.6-15.6-15.6-40.9 0-56.6 15.6-15.6 40.9-15.6 56.6 0l181.2 181.2c15.6 15.6 15.6 40.9 0 56.6L824.1 680.5c-7.9 7.9-18.1 11.8-28.3 11.8z" p-id="1321"></path></svg>