<?xml version="1.0" standalone="no"?><!DOCTYPE svg PUBLIC "-//W3C//DTD SVG 1.1//EN" "http://www.w3.org/Graphics/SVG/1.1/DTD/svg11.dtd"><svg t="1640853142931" class="icon" viewBox="0 0 1024 1024" version="1.1" xmlns="http://www.w3.org/2000/svg" p-id="9696" xmlns:xlink="http://www.w3.org/1999/xlink" width="200" height="200"><defs><style type="text/css"></style></defs><path d="M256 0h512c141.38368 0 256 114.61632 256 256v512c0 141.38368-114.61632 256-256 256H256C114.61632 1024 0 909.38368 0 768V256C0 114.61632 114.61632 0 256 0z m236.1344 85.80096c-119.16288 4.68992-234.7008 62.84288-309.78048 155.38176a422.85056 422.85056 0 0 0-97.024 267.80672 422.42048 422.42048 0 0 0 50.00192 204.02176 429.6704 429.6704 0 0 0 137.37984 152.32 424.17152 424.17152 0 0 0 241.95072 73.29792 424.93952 424.93952 0 0 0 224.08192-65.10592 428.26752 428.26752 0 0 0 167.45472-198.26688c33.37216-79.69792 41.04192-169.63584 22.74304-253.98272-23.88992-112.29184-95.82592-213.11488-193.78176-272.88576A425.6256 425.6256 0 0 0 492.1344 85.84192v-0.04096z m0.43008 53.03296a373.31968 373.31968 0 0 1 202.36288 47.26784 374.72256 374.72256 0 0 1 170.22976 203.56096c26.19392 74.752 27.05408 157.85984 3.71712 233.41056a373.9648 373.9648 0 0 1-136.96 190.976 371.52768 371.52768 0 0 1-222.9248 71.58784 370.3296 370.3296 0 0 1-210.24768-66.72384 372.45952 372.45952 0 0 1-143.73888-195.74784 376.68864 376.68864 0 0 1-1.3312-218.3168A374.59968 374.59968 0 0 1 295.3216 207.43168a370.97472 370.97472 0 0 1 197.20192-68.608h0.04096zM369.13152 309.57568c-13.94688 135.07584-26.74688 270.2848-40.86784 405.31968 33.28 0.47104 66.51904-0.13312 99.74784 0.33792 13.52704-135.33184 28.928-270.4896 42.06592-405.83168-33.61792 0.68608-67.2768 0.38912-100.94592 0.17408z m218.66496 27.392c-35.20512 34.816-72.15104 67.88096-106.57792 103.50592-18.86208 20.736-34.47808 48.3328-29.952 77.2608 1.40288 20.35712 12.75904 37.98016 24.18688 54.19008 33.49504 47.18592 64.90112 95.82592 98.12992 143.18592 42.752-0.21504 85.504 0.16384 128.256-0.17408-41.39008-52.69504-81.58208-106.36288-121.93792-159.86688-9.9328-13.824-22.39488-27.94496-23.59296-45.69088-1.71008-15.49312 9.29792-28.16 19.10784-38.656 54.272-53.76 108.88192-107.08992 162.89792-161.10592-40.448 0.512-80.896 0.21504-121.344 0.04096-9.89184 8.91904-19.4048 18.2272-29.184 27.31008z" fill="#008AD4" p-id="9697"></path></svg>